<?xml version="1.0" standalone="no"?>
<!DOCTYPE svg PUBLIC "-//W3C//DTD SVG 20010904//EN"
 "http://www.w3.org/TR/2001/REC-SVG-20010904/DTD/svg10.dtd">
<svg version="1.0" xmlns="http://www.w3.org/2000/svg"
 width="1080.000000pt" height="1350.000000pt" viewBox="0 0 1080.000000 1350.000000"
 preserveAspectRatio="xMidYMid meet">

<g transform="translate(0.000000,1350.000000) scale(0.100000,-0.100000)"
fill="#000000" stroke="none">
<path d="M0 6750 l0 -6750 276 2 277 3 28 35 c26 32 31 54 65 280 32 207 38
277 42 453 2 143 0 207 -7 207 -6 0 -11 -2 -11 -4 0 -1 -25 -90 -55 -197 -30
-107 -55 -201 -55 -210 0 -31 -105 -141 -235 -247 -72 -58 -138 -112 -148
-120 -16 -14 -17 -3 -17 221 l0 236 42 31 c24 18 75 54 113 81 75 53 235 206
235 225 0 6 27 94 59 195 33 101 61 193 63 204 2 11 8 -17 12 -63 l7 -83 499
3 c486 3 499 4 526 24 67 50 69 56 69 269 0 213 -2 219 -69 269 -27 20 -40 21
-537 24 l-509 3 0 -25 c0 -27 -52 -182 -80 -237 -43 -84 -241 -293 -351 -372
-37 -26 -69 -47 -73 -47 -3 0 -6 98 -6 218 l0 217 33 23 c46 32 238 221 335
330 98 111 121 153 129 237 3 35 9 68 13 74 5 8 298 13 1036 17 620 4 1042 10
1061 16 42 12 90 68 99 113 3 19 4 65 2 100 -4 69 -21 101 -72 139 -27 20 -42
21 -569 26 -332 3 -523 8 -492 13 124 20 280 81 292 114 4 10 -2 23 -17 35
-26 21 -19 32 30 44 42 11 97 45 110 69 12 22 12 22 408 28 218 4 579 7 802 7
386 0 406 1 438 20 94 57 94 183 0 240 -32 19 -52 20 -441 20 -400 0 -408 0
-397 19 12 23 14 75 3 69 -100 -51 -106 -53 -250 -56 -78 -2 -204 1 -280 7
-76 6 -179 14 -228 18 l-90 6 -10 -34 c-15 -52 -80 -89 -236 -134 -110 -32
-154 -40 -245 -43 -96 -3 -121 -1 -177 18 -71 24 -112 54 -103 76 19 47 42 44
-332 44 l-350 0 -7 101 c-4 55 -4 103 0 107 3 4 168 9 365 11 l359 3 -13 33
-14 32 61 -19 c108 -33 223 -30 392 12 69 17 211 62 268 85 13 5 17 2 17 -14
0 -12 7 -37 15 -56 13 -34 13 -36 -11 -51 -13 -9 -82 -37 -152 -63 l-127 -46
-155 1 c-110 1 -167 6 -197 17 -24 8 -43 13 -43 11 0 -2 5 -14 11 -27 9 -20 8
-30 -6 -50 l-16 -26 52 -30 c117 -67 377 -44 576 50 61 29 62 31 79 89 16 58
18 60 50 60 23 0 34 -5 34 -15 0 -8 13 -21 28 -29 56 -29 156 -40 372 -40 230
0 261 5 332 56 l31 21 1006 5 1005 5 28 28 c23 22 28 36 28 74 0 38 -5 52 -29
76 l-30 29 -1008 -2 -1008 -3 3 -50 c3 -50 3 -51 -38 -74 -108 -60 -310 -78
-528 -45 -139 20 -145 24 -137 77 4 23 9 43 10 45 2 2 43 -4 91 -13 49 -9 152
-19 229 -22 l140 -5 85 32 c47 18 96 42 109 54 20 19 22 27 18 75 -7 60 -21
85 -32 52 -19 -62 -262 -110 -415 -81 -74 13 -144 28 -160 34 -10 4 -27 -10
-49 -39 l-33 -45 -84 0 -84 0 0 35 0 35 -51 -20 c-61 -24 -288 -84 -375 -100
-34 -6 -98 -11 -142 -11 -67 0 -91 4 -154 30 l-74 31 -315 -2 -314 -3 -5 -100
c-5 -91 -8 -107 -42 -172 -21 -40 -48 -77 -60 -84 -13 -6 -43 -31 -68 -54 -57
-54 -302 -245 -314 -245 -3 0 -6 92 -6 204 l0 205 176 118 c134 89 180 126
194 153 10 19 41 57 69 85 51 49 51 49 51 115 0 36 4 71 9 78 4 8 6 -20 3 -62
l-5 -76 294 -2 294 -3 3 -23 c3 -17 17 -30 50 -45 42 -20 63 -22 197 -21 132
1 167 5 288 33 75 18 169 43 208 56 40 14 75 23 79 20 3 -2 78 -5 166 -6 l159
-1 6 33 c5 29 7 31 13 14 16 -42 24 -50 62 -57 87 -16 297 19 386 63 l37 19 7
-35 6 -35 130 0 c124 0 130 1 153 25 33 32 33 78 0 110 -23 24 -29 25 -155 25
-113 0 -130 2 -130 16 0 11 -5 14 -17 9 -126 -51 -276 -78 -402 -73 -79 3 -93
6 -118 28 -27 25 -31 25 -170 22 -114 -2 -143 -5 -143 -16 0 -8 -15 -19 -32
-24 -253 -74 -494 -117 -599 -106 -61 7 -189 40 -200 51 -4 5 -11 24 -16 43
l-9 35 -225 6 c-123 4 -243 7 -266 8 -33 1 -40 4 -38 19 2 9 7 38 10 64 l6 48
243 0 243 0 7 -49 c3 -27 12 -53 19 -59 6 -5 46 -18 87 -28 138 -33 341 -19
563 41 177 47 182 49 185 73 4 24 16 26 162 22 66 -1 78 -5 103 -28 27 -25 35
-27 142 -31 131 -4 257 11 353 41 79 25 19 23 1000 26 l753 2 24 25 c32 31 31
50 -1 82 l-26 26 -836 -8 c-658 -5 -840 -10 -856 -20 -54 -34 -159 -49 -336
-50 -190 0 -265 12 -275 46 -6 17 -17 19 -111 19 -104 0 -104 0 -104 -25 0
-21 -8 -26 -67 -43 -312 -88 -518 -105 -698 -60 -87 22 -90 24 -93 53 -1 17
-5 40 -7 53 l-5 22 -225 0 -224 0 5 33 c4 25 -4 15 -38 -44 -23 -42 -56 -86
-73 -98 -16 -12 -56 -46 -88 -76 -33 -30 -93 -73 -134 -96 -41 -23 -105 -61
-141 -85 -37 -24 -70 -44 -74 -44 -5 0 -8 83 -8 184 l0 185 98 49 c200 101
275 143 315 174 23 18 63 47 89 63 38 24 55 44 77 91 16 34 32 75 36 93 l7 31
178 0 179 0 3 32 c2 23 7 32 18 30 65 -16 251 -22 360 -13 147 12 377 54 420
76 27 14 30 14 30 0 0 -11 11 -15 45 -15 43 0 45 -1 45 -30 0 -16 4 -30 9 -30
5 0 7 -8 4 -19 -3 -14 -17 -20 -56 -25 -30 -3 -53 -2 -55 4 -2 5 -13 3 -25 -5
-28 -18 -186 -60 -291 -78 -78 -13 -79 -13 -94 -51 -14 -37 -14 -38 11 -64 26
-26 27 -26 95 -14 38 6 121 27 185 47 82 25 135 35 179 35 62 -1 62 -1 33 -15
-30 -13 -30 -13 25 -14 30 -1 70 -5 89 -11 18 -5 118 -14 221 -21 211 -13 342
-3 432 31 33 12 54 16 58 10 4 -7 70 -9 175 -8 147 3 169 5 179 21 8 12 8 22
0 35 -10 15 -32 17 -182 20 l-170 2 -6 26 c-5 20 -11 24 -24 19 -83 -36 -104
-39 -272 -43 -169 -4 -398 10 -444 28 -17 6 -25 21 -33 65 -10 55 -9 56 11 50
12 -3 104 -11 206 -16 207 -12 369 -2 480 29 l65 19 3 46 c4 53 -9 48 172 72
78 11 117 20 123 30 10 18 176 22 194 4 14 -14 149 -13 270 2 146 18 177 35
111 62 -26 11 -46 11 -112 0 -101 -16 -464 -12 -475 6 -5 8 -38 7 -127 -6
-126 -18 -144 -24 -144 -53 0 -36 -54 -67 -152 -86 -188 -36 -633 -19 -679 27
-11 11 -25 19 -33 19 -9 0 -12 7 -9 20 5 19 3 20 -23 9 -118 -45 -440 -82
-644 -75 -85 3 -233 8 -327 12 -153 5 -173 8 -173 22 1 38 13 41 170 44 152 3
155 3 158 25 3 22 5 22 196 23 112 0 252 6 332 16 136 15 311 45 347 59 21 9
22 -5 2 -31 -8 -10 -15 -29 -15 -41 0 -33 42 -38 335 -38 228 1 272 4 355 22
116 26 145 37 187 69 21 16 66 32 125 45 52 11 96 27 101 35 6 11 32 14 112
14 57 0 106 4 109 9 3 5 34 6 70 4 83 -7 195 12 222 38 19 18 38 21 150 23
148 4 207 19 212 54 3 22 4 22 201 22 132 0 201 -4 208 -11 8 -8 48 -10 117
-7 81 3 106 1 106 -9 0 -9 18 -13 62 -13 60 0 61 0 43 20 -18 20 -16 20 224
22 152 2 241 7 241 13 0 13 -491 19 -499 7 -3 -5 -18 -12 -34 -16 -20 -5 -29
-2 -33 9 -5 11 -22 15 -69 15 -34 0 -86 5 -116 10 -37 7 -55 7 -57 0 -2 -6
-76 -10 -202 -10 -160 0 -199 -3 -203 -14 -8 -21 -138 -40 -219 -32 -57 5 -68
4 -68 -9 0 -9 -9 -15 -23 -15 -13 0 -27 -4 -32 -9 -16 -15 -123 -31 -208 -31
-70 0 -79 2 -84 20 -5 19 -14 20 -124 20 -107 0 -119 -2 -119 -17 0 -14 -17
-22 -74 -36 -41 -10 -108 -31 -148 -48 -140 -58 -255 -80 -445 -86 -94 -3
-219 -2 -277 2 l-105 7 29 45 28 46 133 -2 c246 -3 460 29 709 106 94 30 146
41 148 34 2 -7 41 -11 112 -11 76 0 116 -4 136 -15 32 -16 128 -19 209 -5 28
5 69 12 93 16 43 7 61 34 22 34 -11 0 -20 5 -20 11 0 8 -17 10 -56 5 -30 -3
-156 -9 -280 -12 l-224 -7 0 45 c0 25 -2 47 -5 50 -3 3 -63 -13 -133 -34 -257
-80 -354 -97 -616 -103 l-159 -4 -22 -34 c-22 -31 -29 -34 -141 -55 -229 -43
-479 -65 -687 -60 -143 3 -158 1 -163 -14 -5 -16 -21 -18 -144 -18 -141 0
-150 -2 -150 -41 0 -5 64 -9 146 -9 129 0 145 -2 140 -16 -3 -9 -6 -20 -6 -25
0 -5 -65 -9 -149 -9 l-149 0 -37 -55 c-30 -43 -55 -64 -125 -105 -48 -27 -90
-50 -93 -50 -3 0 -38 -15 -79 -34 -67 -32 -337 -152 -365 -163 -10 -4 -13 35
-13 173 l0 179 113 33 c138 41 408 139 536 196 82 36 99 48 116 79 l20 37 143
0 c111 0 143 -3 140 -12 -3 -9 -45 -14 -144 -18 -122 -4 -139 -7 -142 -22 -3
-16 8 -18 131 -18 99 0 136 3 139 12 3 9 49 13 174 15 223 2 504 29 759 74 55
9 65 14 75 38 l11 28 157 7 c284 12 405 32 637 103 59 18 60 19 63 58 4 69 -1
71 -134 34 -65 -17 -150 -40 -187 -50 -68 -18 -425 -43 -466 -32 -14 3 -21 -3
-29 -25 -9 -28 -15 -30 -88 -40 -257 -36 -593 -63 -773 -61 l-154 1 -13 -31
-13 -31 -130 0 c-71 0 -132 4 -135 8 -3 5 12 59 33 120 20 62 34 112 30 112
-4 0 -29 -9 -54 -20 -64 -27 -280 -91 -440 -130 -145 -35 -352 -80 -366 -80
-5 0 -9 67 -9 154 l0 154 67 6 c179 16 657 70 813 92 178 26 422 74 473 93 16
6 35 11 43 11 25 0 15 -38 -18 -64 l-33 -26 40 0 c180 0 906 54 936 71 10 5
55 16 99 25 81 15 159 55 160 82 0 16 -2 16 -280 -8 -303 -25 -824 -45 -869
-33 -31 8 -36 15 -47 57 -9 36 -9 48 -1 51 7 2 127 6 267 9 233 5 787 37 886
51 45 6 54 19 54 83 0 27 -4 32 -22 32 -13 -1 -129 -8 -258 -16 -314 -21 -588
-32 -796 -33 l-171 -1 -6 28 -6 29 -58 -8 c-105 -15 -403 -39 -738 -59 -181
-11 -376 -22 -432 -26 l-103 -6 0 206 0 206 633 5 c347 3 1222 7 1943 10 1293
5 1311 6 1329 25 10 11 15 23 11 27 -4 4 -299 9 -656 11 l-649 5 -3 21 c-3 19
-11 21 -113 27 -60 4 -358 10 -661 14 l-552 8 -6 49 c-4 27 -4 54 0 60 8 13
706 5 1049 -12 156 -8 251 -8 369 1 157 12 971 6 1129 -7 67 -6 67 -6 67 19 0
31 -6 32 -240 47 -184 12 -854 15 -957 5 -63 -7 -73 -5 -73 8 0 9 -4 18 -8 21
-50 31 -1179 82 -1314 60 -33 -6 -38 -10 -38 -35 0 -26 -2 -27 -27 -19 -50 16
-559 55 -1110 86 l-123 7 0 194 0 194 43 -5 c23 -3 89 -11 147 -16 297 -29
960 -129 999 -150 56 -29 54 -7 -17 168 -58 143 -58 143 -109 172 -29 17 -109
44 -189 64 -129 33 -652 141 -806 167 l-68 11 0 179 c0 98 2 179 4 179 3 0
127 -31 278 -69 239 -61 498 -146 660 -215 21 -9 41 -16 46 -16 20 0 -34 156
-70 205 -21 28 -45 67 -55 87 -19 43 -56 69 -243 165 -125 65 -334 147 -475
188 -33 10 -78 23 -100 30 l-40 12 -3 181 -2 182 22 -10 c13 -5 66 -26 118
-46 52 -19 129 -53 170 -75 41 -21 100 -49 131 -63 57 -24 243 -145 268 -175
12 -14 13 -13 7 9 -3 14 -12 61 -18 105 -9 62 -19 90 -44 125 -17 25 -42 73
-54 108 -13 34 -27 62 -32 62 -5 0 -22 28 -38 61 -16 34 -44 75 -63 90 -41 33
-256 141 -379 190 l-88 34 0 212 0 213 23 -9 c12 -5 60 -27 107 -49 119 -55
227 -102 235 -102 18 0 175 -104 206 -136 61 -63 74 -170 44 -343 -4 -20 -2
-32 4 -30 10 4 95 121 184 255 l48 71 -21 138 c-14 92 -29 154 -45 184 -29 57
-89 116 -175 171 -59 38 -499 259 -577 290 l-33 12 0 214 c0 118 3 214 6 214
3 0 53 -26 112 -59 59 -32 145 -78 192 -101 47 -23 148 -82 225 -130 77 -48
159 -97 183 -109 23 -12 42 -26 42 -31 0 -5 29 -40 63 -77 70 -75 82 -103 93
-234 6 -68 23 -130 24 -88 0 9 15 48 32 85 33 68 33 71 36 238 4 157 2 173
-22 250 -21 69 -36 94 -89 157 -64 74 -97 102 -237 205 -41 30 -83 61 -94 70
-25 21 -123 84 -131 84 -4 0 -89 49 -189 109 -100 59 -191 111 -203 115 -42
13 -43 24 -41 264 l3 230 115 -70 c63 -39 153 -96 200 -128 47 -31 106 -68
131 -82 26 -15 107 -72 180 -127 74 -56 148 -111 164 -123 34 -25 169 -162
220 -223 19 -23 50 -84 72 -140 l37 -100 4 -193 3 -192 -40 -85 c-34 -72 -37
-85 -22 -85 9 0 33 11 51 25 31 23 38 37 62 128 45 165 47 180 59 449 11 240
11 262 -6 320 -56 196 -48 180 -159 310 -59 69 -141 152 -187 188 -45 36 -100
81 -123 101 -83 72 -269 209 -541 399 -195 136 -216 152 -221 164 -2 6 -3 113
-2 238 l3 226 120 -95 c65 -52 133 -105 151 -117 24 -16 158 -118 279 -213 6
-5 30 -24 55 -43 238 -182 525 -435 587 -519 32 -42 69 -89 83 -104 13 -16 35
-56 48 -90 44 -116 45 -145 18 -409 -27 -267 -35 -358 -29 -358 8 0 72 147 87
200 32 117 67 635 48 724 -7 28 -19 89 -29 136 -20 101 -38 134 -129 241 -134
160 -163 191 -216 237 -29 26 -71 65 -93 87 -23 23 -74 67 -115 99 -41 33 -79
64 -85 71 -11 13 -153 133 -354 299 -74 61 -176 145 -225 186 -50 42 -117 95
-148 119 l-58 43 0 124 0 124 128 0 127 0 45 -43 c76 -71 431 -400 479 -443
25 -23 73 -65 106 -94 183 -161 330 -328 462 -525 121 -180 128 -196 179 -385
57 -210 60 -239 40 -372 -8 -57 -25 -174 -36 -260 -11 -87 -31 -199 -45 -250
-30 -112 -31 -122 -5 -83 28 43 94 247 129 400 57 250 63 305 55 480 l-7 160
-68 191 c-68 192 -149 358 -288 594 -34 58 -66 112 -71 120 -61 109 -243 407
-272 447 -21 29 -38 55 -38 58 0 3 42 5 94 5 l93 0 29 -42 c15 -24 54 -92 87
-153 162 -301 217 -405 217 -411 0 -3 31 -63 68 -133 38 -69 84 -163 102 -208
19 -46 35 -81 37 -79 6 6 -68 201 -96 251 -15 28 -34 68 -41 90 -17 53 -142
336 -223 507 -36 75 -68 146 -72 157 l-6 21 635 0 636 0 0 90 0 90 -1320 0
-1320 0 0 -6750z m3360 -1505 c0 -12 -19 -15 -115 -15 -96 0 -115 3 -115 15 0
12 19 15 115 15 96 0 115 -3 115 -15z m-2204 -397 c-3 -13 -6 -26 -6 -30 0 -8
-350 -11 -350 -4 0 3 4 16 10 30 l10 26 171 0 171 0 -6 -22z m989 -1815 c-8
-32 -61 -55 -212 -92 -150 -37 -194 -45 -438 -76 -332 -43 -653 -44 -703 -3
-15 13 -27 4 -19 -14 19 -52 186 -107 326 -109 l86 -1 -65 -17 c-36 -10 -87
-25 -113 -35 -36 -12 -84 -16 -197 -16 l-149 0 -6 -54 c-4 -29 -14 -65 -23
-78 -23 -34 -423 -423 -450 -437 l-22 -12 0 220 c0 121 4 221 9 223 5 2 46 37
92 78 231 209 308 277 337 300 27 21 33 34 38 75 10 92 18 105 24 40 l5 -60
79 -3 c68 -3 82 0 101 18 29 27 108 55 197 70 40 7 88 19 107 26 46 19 51 17
18 -5 -18 -12 -25 -21 -18 -26 6 -3 9 -10 6 -15 -18 -29 287 -49 475 -31 151
15 438 93 476 130 18 18 19 17 32 -26 8 -25 11 -56 7 -70z m-475 -201 c0 -4
-17 -9 -39 -10 -21 -2 -53 -7 -72 -12 -49 -14 -47 -4 3 13 47 17 108 22 108 9z"/>
<path d="M5280 13410 l0 -90 1580 0 1580 0 0 -1180 0 -1180 1095 0 1095 0 0
-1025 0 -1025 -68 0 c-71 0 -215 -31 -267 -58 -36 -18 -135 -101 -135 -113 0
-4 32 3 70 16 91 31 239 63 329 71 l71 7 0 -41 0 -41 -47 -6 c-230 -28 -424
-74 -451 -109 -13 -15 -26 -96 -15 -96 4 0 42 13 83 29 86 33 182 55 328 74
l102 14 0 -43 c0 -47 6 -45 -135 -59 -70 -7 -141 -24 -278 -66 l-97 -30 0 -50
c0 -43 3 -50 16 -45 71 27 257 77 339 90 55 9 112 18 128 21 27 4 27 4 27 -48
l0 -53 -82 -11 c-80 -11 -365 -88 -381 -102 -4 -4 2 -28 13 -53 l20 -45 87 29
c128 42 270 78 309 78 33 0 34 -1 34 -40 0 -39 -1 -40 -35 -40 -59 0 -131 -20
-179 -50 l-45 -29 15 -30 c15 -29 15 -29 49 -15 32 13 162 44 186 44 5 0 9
-15 9 -34 0 -33 -2 -34 -47 -41 -27 -3 -86 -16 -133 -27 -81 -20 -88 -24 -148
-85 -35 -34 -68 -63 -74 -63 -6 0 -9 -3 -6 -6 3 -3 28 6 55 20 45 24 108 37
301 61 l52 7 0 -45 c0 -49 -10 -57 -77 -57 -42 0 -295 -55 -350 -76 -43 -16
-43 -16 -37 -57 4 -23 8 -43 9 -45 1 -1 40 7 86 18 94 22 312 60 347 60 19 0
22 -5 22 -44 0 -51 0 -51 -120 -61 -98 -8 -233 -32 -292 -51 l-48 -16 0 -47 0
-48 53 14 c47 12 346 53 389 53 15 0 18 -8 18 -45 0 -42 -2 -44 -32 -50 -45
-7 -402 -46 -461 -50 -32 -2 -65 -13 -102 -36 -30 -18 -53 -34 -51 -36 2 -2
32 1 67 7 97 15 109 14 109 -14 0 -21 -5 -24 -62 -30 -65 -8 -187 -31 -192
-37 -2 -2 -7 -15 -11 -28 -7 -22 -5 -23 26 -18 19 3 82 11 142 18 107 13 107
13 107 40 0 18 6 30 18 33 16 5 395 46 427 46 13 0 15 -10 13 -47 -3 -47 -4
-48 -38 -50 -166 -12 -380 -38 -400 -48 -14 -7 -78 -18 -142 -24 -141 -13
-164 -21 -170 -56 -5 -23 -3 -26 15 -21 11 3 83 11 160 17 108 10 140 10 146
0 4 -6 14 -9 22 -7 12 5 357 36 395 36 10 0 14 -12 14 -45 0 -53 14 -48 -224
-65 -87 -7 -165 -14 -172 -17 -7 -2 -14 -17 -16 -31 l-3 -27 -125 -7 c-69 -4
-149 -10 -178 -13 -50 -6 -53 -8 -50 -33 2 -16 9 -27 18 -27 8 0 87 4 175 9
113 6 162 12 170 21 7 10 59 17 175 24 249 16 230 19 230 -33 l0 -44 -97 -6
c-54 -4 -144 -10 -201 -14 -56 -4 -106 -4 -110 0 -7 7 -352 -9 -360 -17 -2 -2
-1 -13 3 -24 6 -20 13 -21 186 -21 169 0 179 -1 179 -19 0 -18 8 -19 200 -14
l200 6 0 -46 0 -47 -127 0 c-166 0 -263 -9 -263 -25 0 -8 -49 -14 -172 -19
-94 -3 -173 -8 -174 -9 -2 -2 -1 -13 3 -25 l5 -22 322 -1 c176 -1 330 -3 341
-4 11 -1 30 -2 43 -3 19 -2 22 -8 22 -47 l0 -45 -167 0 c-180 0 -213 4 -213
26 0 11 -25 14 -120 16 -66 1 -141 2 -167 2 -44 1 -48 -1 -51 -25 -3 -23 1
-27 35 -32 21 -4 100 -7 176 -7 l137 0 0 -25 0 -25 -174 0 c-168 0 -175 -1
-181 -21 -4 -11 -4 -23 0 -27 3 -4 87 -8 186 -11 172 -3 179 -2 179 16 0 18 4
19 48 12 26 -4 107 -8 180 -8 l132 -1 0 -47 0 -46 -162 6 c-90 4 -257 9 -371
13 l-208 5 3 -28 c3 -28 4 -28 93 -34 50 -4 132 -7 183 -8 82 -1 96 -4 111
-22 15 -19 32 -22 181 -29 91 -5 166 -9 168 -10 1 0 2 -19 2 -42 l0 -43 -146
7 c-80 3 -161 9 -180 12 -31 6 -34 5 -34 -18 0 -25 -1 -26 -57 -20 -32 3 -102
8 -155 12 l-98 8 0 -28 c0 -21 6 -29 23 -33 19 -4 233 -21 292 -23 11 -1 95
-7 188 -13 l167 -13 0 -44 0 -44 -102 7 c-168 11 -239 22 -251 38 -9 12 -51
19 -160 27 -82 7 -151 10 -154 7 -2 -3 -2 -15 2 -26 7 -24 23 -27 189 -41 118
-9 135 -16 136 -49 0 -10 -13 -12 -62 -7 -35 3 -107 8 -160 12 l-98 6 0 -25
c0 -30 7 -33 96 -41 177 -16 172 -15 166 -38 -5 -20 -10 -21 -129 -15 l-123 5
0 -23 c0 -25 10 -29 105 -40 133 -15 131 -15 131 -36 0 -28 -31 -33 -142 -25
l-94 7 0 -24 c0 -31 9 -34 125 -49 80 -9 94 -14 99 -31 5 -19 1 -20 -110 -15
-119 6 -134 0 -99 -35 14 -14 38 -19 155 -32 44 -5 56 -11 57 -24 1 -17 -21
-18 -378 -17 -246 1 -379 -2 -379 -9 0 -6 97 -11 267 -13 234 -2 268 -4 278
-19 9 -12 40 -19 114 -27 89 -9 101 -12 101 -29 0 -17 -8 -19 -105 -15 -79 2
-105 0 -105 -9 0 -10 -98 -13 -437 -15 -382 -3 -438 -5 -438 -18 0 -13 59 -15
460 -17 533 -2 631 -7 638 -33 6 -23 -27 -28 -130 -21 -43 3 -130 4 -193 1
-93 -4 -115 -8 -115 -20 0 -12 21 -16 114 -18 63 -1 121 -7 128 -13 7 -6 64
-16 126 -21 105 -10 114 -12 109 -30 -4 -17 -13 -18 -114 -14 -62 2 -115 9
-121 15 -17 17 -741 15 -756 -2 -27 -34 5 -37 378 -37 310 0 367 -2 381 -15
22 -20 125 -38 171 -31 28 5 38 2 43 -10 12 -31 5 -34 -83 -34 -66 0 -92 4
-101 15 -17 20 -93 20 -110 0 -21 -26 5 -45 62 -45 34 0 58 -6 75 -19 25 -21
45 -19 75 7 12 10 28 12 57 7 34 -6 41 -4 41 9 0 13 7 15 39 10 36 -6 39 -4
49 24 l11 31 -52 8 c-47 7 -52 11 -52 33 0 25 1 25 70 22 38 -2 72 -5 74 -8 2
-2 -4 -13 -13 -23 -17 -19 -17 -20 3 -30 11 -6 31 -11 44 -11 21 0 24 4 20 21
-6 21 -4 21 53 15 131 -15 124 -11 124 -73 l0 -55 -37 7 c-21 4 -78 8 -128 10
-49 2 -98 6 -107 10 -14 5 -18 2 -18 -14 0 -17 -6 -21 -30 -21 -16 0 -30 -4
-30 -10 0 -6 -145 -11 -401 -12 -368 -3 -403 -4 -413 -20 -27 -43 -6 -45 437
-53 l418 -7 6 22 c5 20 10 21 52 14 25 -5 66 -9 91 -9 25 -1 71 -5 103 -9 l57
-8 0 -49 c0 -55 7 -53 -89 -28 -19 4 -37 6 -42 4 -4 -3 -42 2 -86 10 -96 19
-103 19 -103 0 0 -11 -17 -15 -71 -17 -55 -2 -74 -7 -83 -20 -8 -13 -8 -23 0
-35 10 -15 28 -18 120 -19 60 0 137 -6 172 -13 34 -6 66 -10 70 -7 5 3 32 -2
60 -10 l52 -16 0 -44 c0 -24 -1 -44 -3 -44 -1 0 -18 5 -37 10 -19 6 -89 20
-154 31 -113 20 -120 20 -129 3 -9 -16 -38 -17 -406 -13 -218 2 -525 2 -683 1
-250 -2 -288 -4 -288 -17 0 -43 -179 -95 -342 -98 -105 -2 -119 4 -95 37 10
14 40 21 128 32 128 15 186 29 210 51 9 8 30 18 45 23 18 6 -43 7 -157 3 -203
-6 -239 -3 -239 26 0 17 20 19 378 26 207 4 566 11 796 14 384 5 420 7 430 24
8 12 8 22 0 35 -10 16 -49 17 -534 20 -448 2 -526 0 -546 -13 -28 -18 -281
-33 -309 -18 -38 22 22 40 166 52 147 11 169 16 169 37 0 11 37 14 186 16 165
3 188 5 198 21 8 12 8 22 0 35 -10 15 -32 17 -175 20 l-164 3 -21 -26 c-19
-24 -29 -26 -143 -36 -68 -6 -125 -9 -127 -6 -3 2 0 16 7 29 10 24 15 25 137
31 125 7 127 7 153 37 l25 30 366 0 c313 0 367 2 378 15 10 12 10 18 0 30 -11
13 -65 15 -371 15 l-359 0 -9 -24 c-11 -28 -48 -36 -171 -36 -92 0 -114 7
-108 36 3 17 16 19 133 24 72 3 136 9 143 13 6 5 12 17 12 28 0 13 7 19 24 19
31 0 50 22 34 38 -15 15 -45 16 -50 1 -5 -15 -151 -32 -214 -24 -38 4 -57 12
-64 25 -24 44 -17 46 116 42 82 -3 133 -1 147 7 15 7 119 12 307 14 246 2 285
4 285 17 0 13 -42 15 -304 18 -243 2 -308 5 -320 16 -11 10 -52 15 -139 18
-114 3 -124 5 -140 26 -25 33 -82 40 -124 14 -60 -37 -141 -45 -381 -39 -215
5 -447 28 -637 63 -103 19 -130 29 -130 49 0 8 -5 15 -11 15 -7 0 -9 -10 -5
-25 6 -24 5 -25 -41 -25 -82 0 -123 10 -123 30 0 15 -11 19 -67 22 -109 5
-187 -4 -191 -23 -2 -13 12 -17 89 -22 51 -4 112 -7 136 -7 23 0 43 -4 43 -9
0 -5 3 -17 7 -27 6 -15 -1 -16 -78 -11 -152 11 -200 19 -206 33 -4 11 -10 11
-34 -2 -23 -11 -61 -15 -167 -13 l-137 1 -18 -50 c-17 -45 -23 -51 -60 -61
-63 -18 -373 -25 -533 -13 -96 8 -159 18 -197 32 -67 25 -107 55 -107 80 0 12
-9 19 -29 22 -25 4 -31 0 -36 -20 l-6 -24 -142 7 c-78 4 -147 12 -154 17 -17
14 -58 6 -58 -12 0 -9 11 -16 28 -18 18 -2 27 -9 27 -21 0 -26 27 -31 173 -31
121 0 129 1 134 20 8 32 63 22 63 -11 0 -15 -7 -19 -35 -19 -33 0 -35 -2 -29
-25 9 -35 -23 -40 -167 -26 -66 6 -124 9 -129 6 -5 -3 -7 -12 -3 -20 4 -12 -4
-15 -35 -15 -44 0 -69 -19 -50 -38 18 -18 88 -16 88 3 0 11 7 13 33 7 17 -3
83 -7 144 -7 l113 0 0 -26 c0 -22 6 -28 31 -33 40 -8 49 -1 49 35 0 22 -5 29
-19 29 -33 0 -51 11 -51 31 0 29 35 24 126 -21 64 -31 99 -42 170 -50 109 -12
404 -13 498 0 78 10 98 24 119 85 l14 40 160 5 c174 5 194 12 207 66 5 19 13
24 37 24 16 0 40 -6 52 -14 31 -19 117 -36 187 -36 55 0 75 10 50 25 -5 3 -10
13 -10 21 0 20 116 19 158 -1 116 -58 733 -120 969 -97 60 6 117 14 126 18 13
5 17 1 17 -20 0 -18 -9 -30 -32 -43 -30 -16 -64 -18 -338 -17 -318 1 -410 9
-635 55 -111 23 -135 33 -135 55 0 8 -12 19 -26 24 -37 14 -49 13 -34 -5 10
-13 9 -15 -11 -15 l-22 0 22 -24 c13 -14 33 -27 45 -30 11 -2 -31 -4 -95 -2
-100 2 -120 5 -152 25 -20 12 -37 19 -37 15 0 -4 -5 -3 -12 4 -7 7 -38 12 -70
12 -55 0 -58 -1 -58 -25 0 -25 0 -25 100 -25 88 0 100 -2 110 -19 5 -11 10
-22 10 -25 0 -3 -52 -6 -116 -6 -106 0 -118 -2 -152 -25 -35 -24 -43 -25 -193
-25 l-157 0 -16 -47 c-29 -85 -31 -83 98 -83 135 0 208 12 244 41 l27 21 3
-27 3 -27 187 3 c230 3 249 5 256 32 5 20 5 20 23 -2 14 -16 49 -29 143 -51
348 -80 709 -101 874 -50 71 22 88 21 66 -6 -77 -92 -383 -110 -770 -44 -148
25 -299 66 -322 87 -17 15 -18 15 -18 -5 0 -22 -1 -22 -232 -22 l-231 0 -56
-27 c-52 -26 -67 -28 -199 -32 l-143 -3 6 38 c4 22 9 47 11 56 4 15 1 16 -28
7 -47 -14 -494 -13 -564 1 -57 12 -141 46 -169 70 -13 10 -15 9 -15 -9 0 -27
-18 -27 -48 2 -21 20 -32 22 -106 19 -75 -3 -143 6 -189 24 -12 4 -17 1 -17
-10 0 -14 -38 -16 -379 -16 -324 0 -380 -2 -391 -15 -10 -12 -10 -18 0 -30 19
-23 770 -23 770 0 0 20 9 19 33 -3 19 -17 32 -18 251 -13 51 1 66 -8 66 -41 0
-15 -9 -18 -52 -18 -35 0 -58 -6 -70 -17 -13 -12 -41 -19 -88 -21 -59 -4 -71
-1 -89 17 -20 20 -30 21 -188 19 -145 -3 -167 -5 -177 -20 -8 -13 -8 -23 0
-35 10 -16 31 -18 170 -21 179 -3 233 -16 214 -53 -13 -23 109 -20 -1194 -28
-956 -6 -1020 -7 -1030 -24 -8 -12 -8 -22 0 -35 11 -16 82 -17 1255 -19 l1244
-1 5 -28 c6 -35 59 -67 140 -84 83 -18 450 -9 508 12 23 9 42 13 42 10 0 -4
-7 -26 -16 -49 -9 -24 -14 -47 -10 -51 10 -10 219 -9 277 1 26 4 71 23 102 41
l55 33 -5 -38 -6 -39 322 0 322 0 24 -26 c31 -33 31 -35 3 -54 -19 -12 -81
-16 -357 -18 l-333 -3 6 35 c4 20 5 36 2 36 -3 0 -27 -13 -53 -29 -80 -49
-152 -64 -271 -58 -57 3 -108 9 -113 14 -5 5 -5 22 1 42 8 27 7 32 -6 27 -87
-34 -136 -40 -294 -40 -179 0 -259 12 -312 47 -29 20 -34 29 -38 77 l-5 55
-74 3 c-81 3 -111 -11 -111 -53 0 -39 29 -54 110 -57 l75 -3 0 -50 0 -50 -533
-5 -534 -5 -19 -24 c-25 -31 -24 -47 7 -78 l26 -26 271 6 c149 4 384 7 524 7
l253 0 0 47 0 46 24 -22 c38 -35 123 -51 281 -51 147 0 259 17 303 46 l25 16
-8 -47 c-3 -27 -12 -56 -18 -66 -27 -43 -143 -69 -317 -69 -145 0 -238 16
-270 45 -20 18 -20 17 -20 -33 l0 -52 -702 -2 c-387 -2 -923 -3 -1191 -3
l-489 0 -19 -24 c-28 -34 -25 -86 7 -118 l26 -26 742 6 c407 4 938 7 1179 7
l437 0 0 55 c0 30 2 55 5 55 4 0 20 -7 38 -16 87 -46 476 -18 536 37 l21 20 0
-55 c0 -47 -4 -57 -26 -75 -55 -43 -201 -72 -369 -73 -99 0 -132 5 -187 27
-16 6 -18 0 -18 -58 0 -89 11 -97 145 -97 154 0 349 37 420 79 l35 20 0 -53
c0 -75 -27 -97 -173 -135 -203 -54 -402 -52 -439 3 -4 6 -8 30 -8 54 l0 42
-271 0 -271 0 -29 -29 c-41 -41 -41 -101 0 -142 l29 -29 251 0 c194 0 251 3
251 13 1 6 7 0 15 -14 8 -15 29 -32 47 -38 55 -20 222 -30 301 -19 136 18 289
84 306 131 7 18 9 16 15 -18 4 -22 12 -45 17 -52 14 -16 -30 -83 -75 -118 -91
-69 -190 -84 -381 -56 -163 24 -228 44 -253 76 l-19 24 -12 -26 c-6 -14 -14
-45 -18 -68 -5 -38 -3 -45 19 -59 14 -9 65 -25 114 -36 49 -11 125 -28 168
-40 93 -24 140 -25 258 -5 123 20 150 35 182 100 14 29 26 61 26 69 0 8 5 18
10 21 13 8 9 68 -5 77 -6 5 -6 8 2 8 7 0 10 7 6 16 -5 12 -1 15 13 11 44 -13
141 -27 188 -27 42 0 61 7 106 36 30 20 65 46 78 58 l23 20 -7 -43 -7 -44 354
6 c195 4 502 7 682 7 l329 0 29 29 c41 41 41 101 0 142 l-29 29 -684 0 -683 0
-10 -22 c-6 -13 -36 -41 -68 -63 -54 -37 -64 -40 -122 -39 -35 1 -97 9 -138
18 l-75 17 8 35 c5 20 10 37 12 40 3 2 31 -1 64 -7 81 -15 160 -6 220 25 84
43 96 57 102 115 l5 51 193 0 c181 0 195 1 214 20 28 28 27 93 -2 122 -20 20
-26 21 -215 15 l-193 -6 6 55 c6 48 5 54 -10 48 -9 -3 -16 -10 -16 -14 0 -5
-37 -27 -82 -50 -80 -41 -85 -42 -153 -36 -38 4 -87 11 -107 17 -34 9 -38 13
-38 44 0 18 -3 41 -6 50 -6 15 3 16 107 10 106 -7 119 -6 187 18 40 14 89 38
109 53 l36 27 -6 -41 -7 -41 367 -3 368 -3 65 -39 c35 -21 96 -46 135 -56 38
-11 64 -20 58 -21 -7 -1 -17 -3 -23 -4 -5 -1 -102 -3 -215 -4 -204 -1 -206 -1
-230 -26 -33 -32 -33 -78 0 -111 l25 -25 1108 3 c1038 3 1110 4 1135 21 48 31
48 93 0 124 -24 16 -83 18 -619 21 -327 3 -592 8 -589 12 2 4 27 10 54 13 44
5 123 36 96 37 -5 0 10 10 35 22 42 21 43 23 20 28 -58 14 21 20 249 20 218 0
239 2 254 18 22 24 21 65 -1 85 -16 15 -46 17 -215 17 -182 0 -219 5 -186 25
6 4 8 13 5 21 -3 9 11 21 42 35 46 21 59 21 767 26 598 4 722 7 731 19 9 12
25 11 100 -6 49 -11 108 -20 131 -20 23 0 54 -5 68 -12 21 -9 25 -18 25 -54 0
-44 -6 -47 -45 -25 -5 3 -26 7 -47 8 -20 1 -82 13 -137 26 l-101 24 0 -27 0
-27 -242 -6 c-133 -4 -366 -7 -518 -7 -256 0 -278 -1 -293 -18 -22 -24 -21
-65 1 -85 17 -15 68 -17 521 -17 456 0 503 -1 497 -16 -22 -59 -21 -63 35 -89
54 -24 160 -55 189 -55 8 0 43 -12 77 -27 l62 -28 1 -44 c0 -41 -1 -43 -24
-37 -13 3 -55 20 -92 38 -38 17 -112 39 -164 49 -52 10 -147 32 -210 50 -63
17 -124 31 -135 30 -172 -10 -207 -16 -226 -40 -27 -33 -24 -77 6 -107 l25
-25 271 2 c234 2 272 0 280 -13 5 -8 67 -37 139 -63 l130 -48 0 -45 0 -44 -32
7 c-18 4 -87 23 -153 42 -66 18 -152 38 -191 44 -40 5 -86 14 -103 19 -25 7
-33 6 -38 -6 -3 -9 -1 -20 6 -27 6 -6 11 -15 11 -19 0 -4 -381 -8 -846 -8
l-846 0 -29 -29 c-24 -24 -29 -38 -29 -76 0 -38 5 -52 30 -77 l30 -30 938 3
c864 2 942 1 999 -15 84 -23 96 -26 181 -39 l72 -11 0 -73 0 -73 -542 0 c-524
0 -544 -1 -576 -20 -94 -57 -94 -183 0 -240 32 -19 52 -20 576 -20 l542 0 0
-145 0 -145 -37 -1 c-21 0 -49 -2 -63 -4 -14 -2 -560 -4 -1215 -4 l-1190 -1
-25 37 -26 38 -1805 3 -1806 2 -43 -40 c-24 -22 -45 -40 -46 -40 -2 0 -6 16
-10 35 -3 19 -10 38 -15 41 -12 7 -12 6 6 -54 l16 -52 1882 0 1883 0 27 -55
27 -55 -1930 0 c-1701 0 -1930 2 -1930 15 0 8 5 34 11 58 10 37 9 50 -9 97
-12 30 -21 47 -21 37 -1 -10 6 -34 14 -54 8 -19 15 -37 15 -39 0 -2 -247 -5
-549 -6 -537 -3 -550 -3 -577 -24 -59 -44 -69 -68 -69 -169 0 -101 10 -125 69
-169 27 -21 40 -21 552 -24 581 -3 535 3 613 -71 21 -20 45 -41 54 -48 8 -7
23 -36 32 -65 25 -80 57 -159 62 -154 3 2 -12 47 -31 100 -20 52 -36 98 -36
101 0 3 8 5 18 5 14 0 24 -17 41 -68 21 -66 58 -138 66 -131 2 2 -12 36 -30
74 -19 39 -37 82 -40 98 -7 27 -6 27 40 27 31 0 56 7 76 20 105 75 311 78 379
5 l23 -25 1436 0 1436 0 13 27 c6 15 12 35 12 45 0 10 6 18 14 18 8 0 19 14
25 31 9 27 14 30 47 27 34 -3 37 -6 67 -75 l31 -73 195 0 195 0 -74 75 -74 75
-152 0 -152 0 -18 50 c-18 51 -34 65 -34 31 0 -10 -5 -32 -11 -50 l-11 -31
-1840 0 -1839 0 20 25 c11 14 23 39 26 55 l7 30 1966 0 1967 0 36 -53 37 -52
958 3 c528 1 1039 5 1137 9 l177 6 0 -211 c0 -182 -2 -211 -16 -216 -9 -3
-307 -6 -662 -6 -530 0 -662 3 -732 15 -67 12 -175 15 -505 15 -419 -1 -420
-1 -396 -20 l23 -20 -105 0 c-89 0 -108 3 -130 20 -25 20 -40 20 -1467 20
l-1441 0 -47 -32 -47 -33 -1425 -8 c-784 -4 -1440 -10 -1458 -13 -44 -7 -99
-57 -113 -102 -6 -23 -9 -104 -7 -209 3 -187 7 -199 72 -247 28 -21 30 -21
1149 -18 617 2 1143 5 1169 8 43 5 46 4 41 -15 -5 -20 -2 -21 115 -21 108 0
121 2 133 20 14 19 29 20 581 22 l567 3 6 -22 c5 -22 9 -23 136 -23 l131 0 -4
25 -5 25 516 2 c284 1 595 2 691 2 l175 1 3 -28 3 -28 137 3 137 3 13 28 c13
27 14 27 114 27 l100 0 -4 -30 -5 -30 108 0 107 0 7 28 6 29 232 6 c128 4 477
7 777 7 765 1 1296 14 1340 32 55 23 97 65 124 123 l26 54 0 5990 0 5991
-2760 0 -2760 0 0 -90z m5350 -1080 l0 -990 -1015 0 -1015 0 0 990 0 990 1015
0 1015 0 0 -990z m-1935 -1045 c14 -13 25 -29 25 -35 0 -16 -36 -12 -50 5 -18
22 -54 15 -58 -11 -2 -15 9 -29 38 -49 73 -51 89 -98 49 -149 -16 -20 -29 -26
-59 -26 -30 0 -43 6 -59 26 -12 15 -21 33 -21 40 0 22 38 16 45 -6 12 -37 75
-19 75 21 0 9 -25 38 -55 64 -39 33 -55 54 -55 71 0 33 42 74 75 74 14 0 37
-11 50 -25z m1290 0 c14 -13 25 -29 25 -35 0 -16 -36 -12 -50 5 -18 22 -54 15
-58 -11 -2 -15 9 -29 38 -49 73 -51 89 -98 49 -149 -16 -20 -29 -26 -59 -26
-30 0 -43 6 -59 26 -12 15 -21 33 -21 40 0 22 38 16 45 -6 12 -37 75 -19 75
21 0 9 -25 38 -55 64 -39 33 -55 54 -55 71 0 33 42 74 75 74 14 0 37 -11 50
-25z m-486 -67 l39 -83 1 83 c1 75 3 82 21 82 19 0 20 -7 20 -141 0 -136 -1
-140 -21 -137 -15 2 -30 25 -57 86 l-37 83 -3 -86 c-3 -77 -5 -85 -22 -85 -19
0 -20 8 -20 140 0 134 1 140 20 140 16 0 29 -19 59 -82z m191 27 c0 -48 -2
-55 -20 -55 -18 0 -20 7 -20 55 0 48 2 55 20 55 18 0 20 -7 20 -55z m590 -85
c0 -133 -1 -140 -20 -140 -19 0 -20 7 -20 134 0 131 2 142 33 145 4 1 7 -62 7
-139z m-1027 48 c13 -16 17 -39 17 -104 0 -77 -2 -84 -20 -84 -17 0 -19 8 -22
88 -3 85 -3 87 -28 87 -25 0 -25 -2 -28 -87 -3 -80 -5 -88 -22 -88 -19 0 -20
7 -20 110 l0 111 53 -7 c34 -4 58 -13 70 -26z m-373 7 c18 -21 3 -35 -31 -28
-38 7 -49 -7 -49 -63 0 -50 21 -74 50 -56 14 9 21 8 31 -5 11 -13 10 -17 -6
-29 -26 -19 -59 -17 -86 5 -21 17 -24 28 -24 84 0 50 4 70 19 86 22 25 77 28
96 6z m174 -7 c11 -16 16 -46 16 -105 l0 -83 -47 0 c-56 0 -83 21 -83 64 0 45
25 76 61 76 24 0 30 4 27 18 -2 12 -13 17 -35 17 -37 0 -53 12 -33 25 28 18
78 11 94 -12z m1122 -10 c21 -40 15 -129 -11 -158 -10 -11 -30 -20 -45 -20
-15 0 -35 9 -45 20 -26 29 -32 118 -11 158 14 28 22 32 56 32 34 0 42 -4 56
-32z m209 -33 c10 -35 21 -62 25 -60 4 2 15 32 24 65 14 48 21 60 38 60 12 0
18 -5 16 -12 -3 -7 -18 -55 -33 -105 -38 -125 -51 -124 -93 5 -18 54 -32 101
-32 105 0 4 9 7 19 7 15 0 23 -14 36 -65z m260 41 c9 -13 19 -40 22 -60 l6
-36 -52 0 c-37 0 -51 -4 -51 -14 0 -22 26 -37 53 -31 35 9 43 -11 12 -31 -74
-48 -133 59 -91 161 13 31 19 35 50 35 26 0 40 -6 51 -24z m-180 -5441 c77 -8
146 -15 153 -15 8 0 12 -16 12 -46 0 -44 -1 -45 -27 -40 -16 3 -85 10 -154 17
-70 6 -131 14 -136 18 -6 3 -13 25 -16 49 -5 37 -3 43 11 37 9 -3 80 -12 157
-20z m88 -201 l77 -7 0 -43 c0 -39 -3 -44 -22 -44 -41 0 -273 32 -279 38 -4 4
-10 25 -14 48 l-6 40 83 -12 c46 -7 118 -16 161 -20z m-219 -99 c3 -13 9 -31
13 -42 5 -14 1 -13 -20 7 -28 27 -38 74 -13 64 8 -3 17 -16 20 -29z m161 -83
l130 -18 3 -47 c2 -26 1 -47 -1 -47 -22 0 -222 32 -230 37 -7 4 -8 -8 -3 -37
6 -39 5 -42 -13 -37 -13 3 -21 -1 -24 -12 -3 -13 -12 -16 -41 -13 -31 4 -36 8
-36 31 0 25 3 27 35 23 29 -3 35 -1 35 14 0 26 -12 41 -35 45 -13 3 -21 14
-23 32 -3 22 1 27 18 27 15 0 22 -8 26 -29 4 -17 13 -32 22 -36 23 -9 25 0 8
34 -17 33 -20 51 -8 50 4 0 66 -8 137 -17z m38 -203 l97 -12 0 -47 0 -47 -92
13 c-125 18 -117 20 -108 -21 4 -19 5 -35 1 -35 -12 0 -27 15 -34 31 -4 12
-23 19 -65 24 -57 6 -60 8 -64 36 l-5 30 56 -6 c31 -4 64 -9 74 -11 14 -4 17
1 17 31 0 27 4 36 13 32 8 -3 57 -11 110 -18z m-1711 -61 c-15 -15 -24 -6 -16
16 5 12 10 14 17 7 8 -8 8 -14 -1 -23z m-1223 -98 c166 -44 403 -71 661 -77
228 -5 250 -3 310 16 35 11 66 18 68 16 2 -2 1 -13 -3 -25 -16 -49 -163 -90
-326 -90 -214 0 -614 54 -761 104 -63 21 -67 21 -71 4 -5 -17 -22 -18 -230
-18 l-224 0 5 25 4 25 172 0 c219 0 274 6 282 32 4 12 11 17 21 13 9 -3 50
-14 92 -25z m1232 -2 c-7 -33 -27 -45 -79 -47 l-24 -1 19 32 c16 28 42 44 79
47 8 1 9 -10 5 -31z m-26 -130 c-4 -13 -9 -31 -12 -41 -4 -15 -14 -17 -61 -15
-110 6 -58 67 66 77 9 1 11 -6 7 -21z m-2897 -126 c55 -29 79 -34 180 -43 119
-11 446 1 486 17 17 6 18 4 12 -19 -20 -83 -24 -75 46 -82 144 -15 305 26 335
85 l12 25 263 5 c192 4 270 2 289 -7 49 -23 225 -62 349 -79 88 -11 178 -15
306 -12 l181 3 -46 -18 c-76 -29 -184 -38 -376 -32 -197 7 -295 26 -365 70
-46 29 -50 30 -50 10 0 -13 -41 -15 -287 -17 l-288 -3 -6 -37 -6 -38 288 0
c251 0 288 2 283 15 -5 13 0 13 42 0 83 -26 157 -45 176 -45 23 0 23 -9 1 -26
-17 -13 -16 -15 7 -34 14 -10 30 -19 35 -18 25 4 167 -26 182 -38 16 -12 14
-13 -17 -8 -66 11 -315 63 -347 73 -20 6 -33 6 -33 0 0 -5 -127 -9 -314 -9
l-314 0 5 40 c6 42 -5 52 -27 26 -30 -37 -200 -71 -307 -61 l-71 7 8 27 c5 14
11 38 14 52 6 26 5 26 -37 18 -23 -5 -117 -12 -209 -15 -230 -10 -366 9 -447
63 -18 12 -48 15 -123 14 -99 -2 -100 -2 -96 21 2 15 11 24 25 26 12 2 27 10
33 18 8 9 32 14 71 14 57 0 59 1 59 26 0 14 3 24 8 22 4 -2 35 -18 70 -36z
m2592 -62 c0 -22 -19 -34 -47 -28 -16 3 -16 5 5 26 27 27 42 28 42 2z m-110
-155 l0 -45 -115 0 -116 0 31 45 31 45 84 0 85 0 0 -45z m-753 -160 c57 -24
280 -67 356 -68 l68 -2 -5 -29 c-4 -16 -11 -35 -17 -43 -15 -17 -76 -17 -183
2 -97 17 -148 39 -204 89 -20 18 -52 42 -69 55 -21 14 -33 31 -33 45 0 38 13
39 32 1 12 -22 32 -40 55 -50z m2783 -166 c47 -12 105 -22 130 -24 73 -5 80
-11 80 -66 0 -54 -6 -58 -42 -29 -14 10 -28 17 -31 14 -7 -8 -150 24 -215 48
-39 15 -52 24 -48 35 3 8 6 24 6 34 0 15 5 19 18 15 9 -3 55 -15 102 -27z
m-3582 -316 c-16 -34 -76 -76 -148 -104 -60 -23 -132 -21 -194 5 -30 12 -33
18 -34 61 l-2 47 42 -8 c93 -16 165 -6 243 32 41 20 80 43 87 52 11 13 13 10
16 -21 2 -20 -3 -49 -10 -64z m97 -2066 l-50 -22 -940 -3 -940 -2 45 23 45 24
945 1 945 1 -50 -22z m1293 -2 l37 -25 -549 0 -548 0 -30 25 -30 25 542 0 541
0 37 -25z m1132 15 c13 -9 13 -10 0 -10 -8 -1 -1 -7 15 -15 26 -12 -33 -13
-439 -14 -458 -1 -469 -1 -502 20 -19 11 -34 23 -34 25 0 9 946 3 960 -6z
m-3140 -145 l0 -35 -219 0 c-136 0 -221 4 -223 10 -2 6 -15 6 -39 0 -23 -6
-211 -9 -492 -8 l-456 3 25 33 25 32 690 0 689 0 0 -35z m2138 -2 l3 -33 -538
0 c-417 0 -543 3 -554 13 -8 6 -23 22 -33 35 l-19 22 569 -2 569 -3 3 -32z
m300 27 c-10 -6 -25 -7 -40 -1 -20 9 -18 10 17 10 31 0 36 -2 23 -9z m747 0
c-11 -5 -31 -9 -45 -9 -18 -1 -21 -4 -11 -10 22 -14 -100 -32 -264 -38 -139
-5 -158 -3 -258 21 -60 14 -116 30 -125 36 -11 6 110 9 353 9 216 0 362 -4
350 -9z m-4105 -159 c-128 -30 -239 -41 -413 -41 -92 0 -167 2 -167 5 0 2 5
16 12 30 l11 25 316 -1 316 -1 -75 -17z m908 -8 l-3 -28 -181 -3 -181 -2 -11
25 c-7 14 -12 28 -12 30 0 3 88 5 196 5 l195 0 -3 -27z m2138 11 c-3 -9 -6
-22 -6 -30 0 -12 -32 -14 -184 -14 -113 0 -196 4 -216 12 -26 9 -35 9 -38 0
-3 -9 -72 -12 -255 -12 -244 0 -251 1 -274 22 -13 12 -23 25 -23 30 0 4 225 8
501 8 453 0 501 -2 495 -16z m-3478 -161 c-14 -16 -33 -40 -43 -55 -17 -28
-18 -28 -130 -28 l-113 0 36 55 36 55 120 0 120 0 -26 -27z m1324 -28 l-4 -55
-137 0 -136 0 -18 49 c-9 27 -17 51 -17 55 0 3 71 6 158 6 l157 0 -3 -55z
m1718 23 c0 -18 -3 -43 -6 -55 -6 -23 -8 -23 -178 -23 l-171 0 -30 42 c-16 23
-34 48 -38 55 -7 11 32 13 208 13 l215 0 0 -32z m410 15 c0 -10 -3 -35 -6 -55
l-7 -38 -114 0 c-101 0 -114 2 -109 16 3 9 6 33 6 55 l0 39 115 0 c103 0 115
-2 115 -17z"/>
<path d="M8740 12980 l0 -210 210 0 210 0 0 210 0 210 -210 0 -210 0 0 -210z
m360 0 l0 -150 -150 0 -150 0 0 150 0 150 150 0 150 0 0 -150z"/>
<path d="M8860 12980 l0 -90 90 0 90 0 0 90 0 90 -90 0 -90 0 0 -90z"/>
<path d="M9330 13130 l0 -60 -55 0 -55 0 0 -60 c0 -57 1 -60 25 -60 21 0 25 5
25 30 0 27 3 30 30 30 27 0 30 3 30 30 l0 30 90 0 90 0 0 30 0 30 -60 0 -60 0
0 30 c0 27 -3 30 -30 30 l-30 0 0 -60z"/>
<path d="M9570 13130 l0 -60 30 0 c27 0 30 3 30 30 0 27 3 30 30 30 l30 0 0
-60 0 -60 -90 0 -90 0 0 -60 0 -60 -30 0 -30 0 0 60 0 60 -30 0 -30 0 0 -90 0
-90 -30 0 c-27 0 -30 3 -30 30 0 27 -3 30 -30 30 -27 0 -30 -3 -30 -30 0 -25
-4 -30 -25 -30 -21 0 -25 -5 -25 -30 0 -25 4 -30 25 -30 21 0 25 -5 25 -30 l0
-30 120 0 120 0 0 -25 c0 -21 -5 -25 -30 -25 -27 0 -30 -3 -30 -30 0 -27 3
-30 30 -30 27 0 30 3 30 30 0 27 3 30 30 30 27 0 30 -3 30 -30 l0 -30 60 0 60
0 0 -30 0 -30 -90 0 -90 0 0 -30 c0 -27 -3 -30 -30 -30 -27 0 -30 3 -30 30 l0
30 -60 0 -60 0 0 30 c0 27 -3 30 -30 30 -27 0 -30 3 -30 30 0 25 -4 30 -25 30
-20 0 -25 5 -25 25 0 24 -3 25 -60 25 -57 0 -60 -1 -60 -25 0 -24 3 -25 60
-25 l60 0 0 -30 0 -30 -90 0 -90 0 0 55 0 55 -60 0 -60 0 0 -55 c0 -54 0 -55
-30 -55 -27 0 -30 -3 -30 -30 0 -27 -3 -30 -30 -30 l-30 0 0 60 0 60 -30 0
-30 0 0 -60 0 -60 30 0 c27 0 30 -3 30 -30 0 -27 -3 -30 -30 -30 -27 0 -30 -3
-30 -30 0 -27 3 -30 30 -30 27 0 30 -3 30 -30 l0 -30 60 0 60 0 0 -30 c0 -27
3 -30 30 -30 27 0 30 -3 30 -30 0 -27 -3 -30 -30 -30 -27 0 -30 -3 -30 -30 l0
-30 -60 0 -60 0 0 30 c0 27 -3 30 -30 30 l-30 0 0 -145 0 -145 60 0 60 0 0 55
c0 54 0 55 30 55 30 0 30 -1 30 -55 l0 -55 60 0 c57 0 60 1 60 25 0 21 5 25
30 25 25 0 30 -4 30 -25 0 -21 5 -25 30 -25 25 0 30 4 30 25 0 21 -5 25 -30
25 -27 0 -30 3 -30 30 0 27 3 30 30 30 27 0 30 3 30 30 0 27 3 30 30 30 l30 0
0 -145 0 -145 25 0 c21 0 25 -5 25 -30 0 -25 -4 -30 -25 -30 -24 0 -25 -3 -25
-60 0 -57 1 -60 25 -60 21 0 25 5 25 30 0 27 3 30 30 30 l30 0 0 -60 0 -60
-30 0 -30 0 0 -60 0 -60 30 0 c27 0 30 3 30 30 0 27 3 30 30 30 27 0 30 -3 30
-30 0 -27 3 -30 30 -30 27 0 30 3 30 30 0 27 -3 30 -30 30 -27 0 -30 3 -30 30
0 27 3 30 30 30 l30 0 0 90 0 90 -30 0 c-27 0 -30 3 -30 30 0 27 -3 30 -30 30
-27 0 -30 3 -30 30 0 27 -3 30 -30 30 -27 0 -30 3 -30 30 l0 30 60 0 60 0 0
-30 c0 -27 3 -30 30 -30 27 0 30 3 30 30 0 27 3 30 30 30 25 0 30 4 30 25 0
21 5 25 30 25 30 0 30 -1 30 -55 l0 -55 90 0 90 0 0 30 0 30 -60 0 c-57 0 -60
1 -60 25 0 21 -5 25 -30 25 -27 0 -30 3 -30 30 0 27 3 30 30 30 27 0 30 3 30
30 0 27 3 30 30 30 27 0 30 -3 30 -30 0 -27 3 -30 30 -30 27 0 30 -3 30 -30 0
-27 3 -30 30 -30 l30 0 0 -85 0 -85 30 0 c27 0 30 -3 30 -30 0 -27 -3 -30 -30
-30 -27 0 -30 -3 -30 -30 l0 -30 145 0 145 0 0 -60 0 -60 -30 0 c-27 0 -30 3
-30 30 0 30 -1 30 -55 30 -54 0 -55 0 -55 -30 0 -27 -3 -30 -30 -30 -27 0 -30
-3 -30 -30 0 -27 -3 -30 -30 -30 l-30 0 0 60 0 60 -30 0 c-27 0 -30 3 -30 30
l0 30 -60 0 -60 0 0 60 0 60 -30 0 -30 0 0 -90 0 -90 -30 0 -30 0 0 -60 0 -60
90 0 90 0 0 -30 c0 -27 3 -30 30 -30 27 0 30 3 30 30 0 27 3 30 30 30 27 0 30
-3 30 -30 l0 -30 115 0 115 0 0 30 c0 27 3 30 30 30 27 0 30 -3 30 -30 l0 -30
90 0 90 0 0 30 c0 27 3 30 30 30 27 0 30 3 30 30 0 27 3 30 30 30 27 0 30 -3
30 -30 0 -27 3 -30 30 -30 l30 0 0 60 0 60 -30 0 c-27 0 -30 3 -30 30 l0 30
-60 0 -60 0 0 -30 c0 -27 3 -30 30 -30 27 0 30 -3 30 -30 l0 -30 -60 0 -60 0
0 30 c0 27 -3 30 -30 30 -27 0 -30 3 -30 30 0 27 3 30 30 30 27 0 30 3 30 30
0 27 3 30 30 30 27 0 30 3 30 30 0 27 3 30 30 30 l30 0 0 85 0 85 30 0 c25 0
30 -4 30 -25 0 -21 5 -25 30 -25 25 0 30 4 30 25 0 21 -5 25 -30 25 -27 0 -30
3 -30 30 0 27 3 30 30 30 27 0 30 3 30 30 0 27 -3 30 -30 30 -27 0 -30 -3 -30
-30 l0 -30 -60 0 -60 0 0 -55 c0 -54 0 -55 -30 -55 -25 0 -30 4 -30 25 0 24
-3 25 -60 25 l-60 0 0 30 0 30 60 0 60 0 0 30 0 30 60 0 60 0 0 30 c0 27 -3
30 -30 30 -27 0 -30 3 -30 30 l0 30 60 0 60 0 0 30 c0 27 3 30 30 30 l30 0 0
60 0 60 -30 0 c-27 0 -30 3 -30 30 0 27 3 30 30 30 27 0 30 3 30 30 0 27 -3
30 -30 30 -27 0 -30 -3 -30 -30 0 -27 -3 -30 -30 -30 -27 0 -30 -3 -30 -30 0
-27 -3 -30 -30 -30 -27 0 -30 3 -30 30 0 27 -3 30 -30 30 -27 0 -30 -3 -30
-30 0 -27 -3 -30 -30 -30 -27 0 -30 -3 -30 -30 0 -27 -3 -30 -30 -30 l-30 0 0
60 0 60 -60 0 -60 0 0 30 0 30 120 0 120 0 0 30 c0 27 3 30 30 30 27 0 30 -3
30 -30 0 -27 3 -30 30 -30 27 0 30 3 30 30 0 27 3 30 30 30 27 0 30 3 30 30 0
27 -3 30 -30 30 -25 0 -30 4 -30 25 0 24 -3 25 -60 25 -57 0 -60 -1 -60 -25 0
-24 -3 -25 -60 -25 l-60 0 0 -30 0 -30 -115 0 -115 0 0 30 c0 27 -3 30 -30 30
-27 0 -30 -3 -30 -30 l0 -30 -60 0 -60 0 0 55 c0 54 0 55 -30 55 l-30 0 0 60
0 60 30 0 c27 0 30 -3 30 -30 0 -27 3 -30 30 -30 27 0 30 -3 30 -30 l0 -30 60
0 60 0 0 60 0 60 -30 0 c-27 0 -30 -3 -30 -30 0 -27 -3 -30 -30 -30 -27 0 -30
3 -30 30 0 27 -3 30 -30 30 -27 0 -30 3 -30 30 0 27 3 30 30 30 27 0 30 3 30
30 0 27 3 30 30 30 27 0 30 -3 30 -30 l0 -30 60 0 60 0 0 -60 c0 -57 1 -60 25
-60 24 0 25 3 25 60 0 57 -1 60 -25 60 -21 0 -25 5 -25 30 0 25 4 30 25 30 21
0 25 5 25 30 0 25 -4 30 -25 30 -24 0 -25 3 -25 60 0 57 1 60 25 60 21 0 25 5
25 30 0 30 -1 30 -55 30 l-55 0 0 -90 0 -90 -60 0 -60 0 0 30 c0 27 3 30 30
30 27 0 30 3 30 30 l0 30 -60 0 -60 0 0 30 0 30 -60 0 -60 0 0 -60z m180 -150
c0 -27 -3 -30 -30 -30 -27 0 -30 3 -30 30 0 27 3 30 30 30 27 0 30 -3 30 -30z
m180 0 c0 -27 -3 -30 -30 -30 -27 0 -30 3 -30 30 0 27 3 30 30 30 27 0 30 -3
30 -30z m-300 -60 c0 -27 -3 -30 -30 -30 -27 0 -30 3 -30 30 0 27 3 30 30 30
27 0 30 -3 30 -30z m-300 -120 c0 -27 -3 -30 -30 -30 -27 0 -30 3 -30 30 0 27
3 30 30 30 27 0 30 -3 30 -30z m120 0 c0 -27 -3 -30 -30 -30 -27 0 -30 3 -30
30 0 27 3 30 30 30 27 0 30 -3 30 -30z m120 -30 l0 -60 30 0 c25 0 30 -4 30
-25 0 -21 -5 -25 -30 -25 -25 0 -30 4 -30 25 0 21 -5 25 -30 25 l-30 0 0 60 0
60 30 0 30 0 0 -60z m770 -140 c0 -27 -3 -30 -30 -30 -27 0 -30 3 -30 30 0 27
3 30 30 30 27 0 30 -3 30 -30z m-470 -90 l0 -60 30 0 c27 0 30 -3 30 -30 0
-30 1 -30 55 -30 54 0 55 0 55 -30 l0 -30 -85 0 -85 0 0 -30 c0 -27 -3 -30
-30 -30 -27 0 -30 -3 -30 -30 0 -27 -3 -30 -30 -30 -27 0 -30 3 -30 30 0 27 3
30 30 30 l30 0 0 60 0 60 -30 0 c-27 0 -30 -3 -30 -30 0 -27 -3 -30 -30 -30
l-30 0 0 -60 0 -60 -30 0 c-27 0 -30 -3 -30 -30 0 -27 -3 -30 -30 -30 l-30 0
0 -60 0 -60 -90 0 -90 0 0 -30 c0 -27 -3 -30 -30 -30 -27 0 -30 3 -30 30 0 27
-3 30 -30 30 -27 0 -30 3 -30 30 l0 30 120 0 120 0 0 60 0 60 -30 0 -30 0 0
90 0 90 -30 0 c-27 0 -30 -3 -30 -30 l0 -30 -60 0 -60 0 0 -30 0 -30 60 0 60
0 0 -60 0 -60 -60 0 -60 0 0 30 0 30 -85 0 -85 0 0 -30 c0 -27 3 -30 30 -30
27 0 30 -3 30 -30 0 -27 -3 -30 -30 -30 -27 0 -30 3 -30 30 0 27 -3 30 -30 30
l-30 0 0 60 0 60 -30 0 -30 0 0 60 0 60 -90 0 -90 0 0 30 0 30 60 0 60 0 0 30
0 30 150 0 150 0 0 -30 0 -30 -120 0 -120 0 0 -30 c0 -27 3 -30 30 -30 27 0
30 -3 30 -30 0 -27 3 -30 30 -30 27 0 30 3 30 30 0 27 3 30 30 30 27 0 30 -3
30 -30 0 -27 -3 -30 -30 -30 -27 0 -30 -3 -30 -30 l0 -30 60 0 60 0 0 30 c0
25 4 30 25 30 21 0 25 5 25 30 0 27 3 30 30 30 27 0 30 3 30 30 0 27 -3 30
-30 30 -27 0 -30 3 -30 30 0 27 3 30 30 30 27 0 30 -3 30 -30 l0 -30 60 0 60
0 0 -30 0 -30 60 0 60 0 0 30 c0 27 3 30 30 30 l30 0 0 -60 0 -60 30 0 c27 0
30 3 30 30 0 27 3 30 30 30 27 0 30 3 30 30 0 27 -3 30 -30 30 -27 0 -30 3
-30 30 0 27 3 30 30 30 27 0 30 -3 30 -30 0 -27 3 -30 30 -30 l30 0 0 60 0 60
30 0 30 0 0 -60z m410 -150 c0 -27 3 -30 30 -30 27 0 30 3 30 30 0 27 3 30 30
30 l30 0 0 -60 0 -60 -60 0 -60 0 0 30 c0 27 -3 30 -30 30 -27 0 -30 -3 -30
-30 0 -27 -3 -30 -30 -30 -27 0 -30 -3 -30 -30 0 -27 -3 -30 -30 -30 -27 0
-30 -3 -30 -30 0 -27 3 -30 30 -30 27 0 30 -3 30 -30 0 -27 -3 -30 -30 -30
-27 0 -30 -3 -30 -30 l0 -30 -85 0 -85 0 0 -30 c0 -27 -3 -30 -30 -30 -27 0
-30 3 -30 30 0 27 3 30 30 30 27 0 30 3 30 30 l0 30 -90 0 -90 0 0 30 0 30 60
0 60 0 0 30 c0 27 3 30 30 30 27 0 30 3 30 30 0 25 4 30 25 30 21 0 25 -5 25
-30 0 -25 -4 -30 -25 -30 -21 0 -25 -5 -25 -30 0 -25 4 -30 25 -30 21 0 25 -5
25 -30 0 -27 3 -30 30 -30 l30 0 0 90 0 90 60 0 60 0 0 30 c0 27 3 30 30 30
27 0 30 3 30 30 0 27 3 30 30 30 27 0 30 -3 30 -30z m-1240 -330 l0 -60 -30 0
c-27 0 -30 3 -30 30 0 27 -3 30 -30 30 -27 0 -30 3 -30 30 l0 30 60 0 60 0 0
-60z m890 -140 c0 -27 -3 -30 -30 -30 -27 0 -30 3 -30 30 0 27 3 30 30 30 27
0 30 -3 30 -30z m230 -60 l0 -90 -90 0 -90 0 0 90 0 90 90 0 90 0 0 -90z m120
0 c0 -27 -3 -30 -30 -30 -27 0 -30 3 -30 30 0 27 3 30 30 30 27 0 30 -3 30
-30z m-530 -240 l0 -30 -60 0 -60 0 0 30 0 30 60 0 60 0 0 -30z m290 -60 c0
-27 -3 -30 -30 -30 -27 0 -30 3 -30 30 0 27 3 30 30 30 27 0 30 -3 30 -30z
m120 0 c0 -27 -3 -30 -30 -30 -27 0 -30 3 -30 30 0 27 3 30 30 30 27 0 30 -3
30 -30z"/>
<path d="M9510 12330 l0 -30 60 0 60 0 0 30 0 30 -60 0 -60 0 0 -30z"/>
<path d="M10040 11860 c0 -27 3 -30 30 -30 27 0 30 3 30 30 0 27 -3 30 -30 30
-27 0 -30 -3 -30 -30z"/>
<path d="M10040 12980 l0 -210 210 0 210 0 0 210 0 210 -210 0 -210 0 0 -210z
m360 0 l0 -150 -150 0 -150 0 0 150 0 150 150 0 150 0 0 -150z"/>
<path d="M10160 12980 l0 -90 90 0 90 0 0 90 0 90 -90 0 -90 0 0 -90z"/>
<path d="M8740 11680 l0 -210 210 0 210 0 0 210 0 210 -210 0 -210 0 0 -210z
m360 0 l0 -150 -150 0 -150 0 0 150 0 150 150 0 150 0 0 -150z"/>
<path d="M8860 11680 l0 -90 90 0 90 0 0 90 0 90 -90 0 -90 0 0 -90z"/>
<path d="M9690 11800 c0 -27 3 -30 30 -30 27 0 30 3 30 30 0 27 -3 30 -30 30
-27 0 -30 -3 -30 -30z"/>
<path d="M8984 11116 c-11 -28 0 -61 21 -61 16 0 20 7 20 35 0 25 -5 36 -18
38 -9 2 -20 -3 -23 -12z"/>
<path d="M10096 11174 c-12 -32 -6 -101 10 -115 14 -11 18 -10 30 6 14 19 19
81 8 109 -3 9 -14 16 -24 16 -10 0 -21 -7 -24 -16z"/>
<path d="M10576 11184 c-13 -33 -6 -44 24 -44 19 0 30 5 30 14 0 27 -12 46
-30 46 -10 0 -21 -7 -24 -16z"/>
<path d="M2800 13100 l0 -290 178 0 177 1 -50 44 c-49 43 -52 45 -117 45 l-68
0 0 80 0 80 28 0 c18 0 44 15 77 45 l50 44 -77 1 -78 0 0 75 0 75 63 0 c60 0
65 2 112 45 l50 44 -172 1 -173 0 0 -290z"/>
<path d="M3357 13345 c36 -44 39 -45 95 -45 l58 0 0 -245 0 -245 60 0 60 0 0
290 0 290 -155 0 -156 0 38 -45z"/>
<path d="M3790 13345 l0 -45 60 0 60 0 0 -245 0 -245 60 0 60 0 0 245 0 245
65 0 65 0 0 45 0 45 -185 0 -185 0 0 -45z"/>
<path d="M4310 13100 l0 -290 178 0 177 1 -50 44 c-49 43 -52 45 -117 45 l-68
0 0 80 0 80 28 0 c18 0 44 15 77 45 l50 44 -77 1 -78 0 0 75 0 75 63 0 c60 0
65 2 112 45 l50 44 -172 1 -173 0 0 -290z"/>
<path d="M4810 13100 l0 -290 60 0 60 0 0 110 0 110 35 0 c35 0 35 0 35 45 0
45 0 45 -35 45 l-35 0 0 90 0 90 45 0 44 0 3 -132 3 -133 58 54 57 54 0 123 0
124 -165 0 -165 0 0 -290z"/>
<path d="M3300 13098 l0 -288 60 0 60 0 0 223 -1 222 -59 65 -59 65 -1 -287z"/>
<path d="M5067 13052 c-14 -15 -17 -40 -17 -130 l0 -112 60 0 60 0 0 130 0
130 -43 0 c-30 0 -49 -6 -60 -18z"/>
<path d="M6380 10584 c-44 -14 -79 -39 -110 -79 -14 -18 -12 -17 20 2 68 41
146 56 292 57 75 0 135 2 134 4 -2 2 -30 10 -63 17 -75 18 -215 18 -273 -1z"/>
<path d="M6410 10458 c-41 -11 -86 -22 -99 -25 -13 -3 -43 -24 -66 -47 -33
-32 -45 -52 -54 -94 -6 -29 -11 -65 -11 -80 0 -26 1 -26 36 16 45 53 104 83
214 110 109 27 303 38 390 23 131 -24 220 -68 220 -109 1 -15 2 -14 11 2 18
30 5 113 -21 141 -14 15 -59 35 -120 54 -92 30 -105 31 -261 30 -130 0 -179
-5 -239 -21z"/>
<path d="M6495 10230 c-22 -4 -62 -11 -90 -15 -70 -11 -133 -45 -183 -99 l-42
-46 0 -82 0 -82 32 46 c39 56 114 104 206 131 55 16 99 20 242 21 155 1 183
-2 245 -21 40 -13 84 -35 102 -52 17 -16 34 -26 37 -23 12 11 5 104 -9 132
-36 69 -153 101 -363 99 -75 -1 -155 -5 -177 -9z"/>
<path d="M6432 9965 c-68 -19 -145 -69 -204 -133 -46 -50 -48 -53 -48 -113 l0
-61 59 55 c51 46 73 59 143 81 208 64 522 57 621 -15 l27 -20 11 28 c13 34 4
85 -19 111 -9 11 -53 33 -97 48 -74 26 -93 28 -260 31 -135 2 -193 -1 -233
-12z"/>
<path d="M1812 9929 c-51 -10 -104 -40 -132 -76 -25 -33 -27 -58 -2 -48 39 17
206 35 347 38 l150 2 103 -47 c57 -26 123 -61 147 -77 l44 -30 -32 44 c-18 24
-54 60 -80 80 -56 43 -175 100 -238 114 -52 12 -246 12 -307 0z"/>
<path d="M1915 9740 c-66 -5 -157 -14 -202 -21 l-83 -11 -15 -51 c-22 -73 -21
-77 18 -67 44 12 290 30 414 30 89 0 115 -4 205 -34 123 -40 172 -66 215 -115
l33 -36 0 59 c0 54 -3 61 -34 91 -48 45 -110 80 -217 121 -105 41 -161 46
-334 34z"/>
<path d="M6512 9699 c-45 -5 -131 -25 -191 -44 -59 -19 -115 -35 -123 -35 -8
0 -42 -18 -74 -40 l-59 -40 -80 6 c-50 4 -89 2 -105 -5 -23 -10 -22 -11 10 -6
20 3 81 -1 135 -9 95 -13 141 -28 315 -97 41 -17 116 -45 165 -64 125 -46 194
-76 238 -104 38 -24 60 -25 32 -1 -17 14 -20 51 -5 66 20 20 -19 52 -97 78
-80 26 -209 59 -275 70 -51 9 -53 45 -5 71 30 16 53 17 213 12 176 -5 266 -19
300 -48 8 -6 16 -10 17 -8 2 2 14 28 27 57 l24 53 -31 30 c-61 62 -207 81
-431 58z"/>
<path d="M1706 9499 c-77 -5 -144 -13 -150 -19 -5 -5 -10 -31 -11 -57 -1 -27
-5 -60 -9 -75 l-8 -28 36 15 c42 18 283 45 400 45 44 0 115 -7 156 -16 92 -19
247 -77 295 -109 l35 -24 14 47 c16 56 10 73 -43 107 -47 32 -189 91 -262 110
-63 17 -220 18 -453 4z"/>
<path d="M5910 9419 c-91 -9 -146 -26 -175 -54 -24 -21 -88 -164 -79 -174 2
-3 14 5 27 16 37 35 118 70 188 82 90 15 268 14 364 -3 143 -26 465 -155 628
-253 32 -19 60 -33 62 -31 2 2 -10 28 -28 58 -31 52 -40 58 -152 115 -133 67
-336 157 -462 204 -91 34 -254 51 -373 40z"/>
<path d="M1700 9244 c-14 -2 -43 -7 -65 -9 -66 -9 -68 -13 -54 -84 l13 -63 61
6 c347 36 523 23 650 -47 l45 -26 0 22 c0 12 7 31 15 41 36 47 14 63 -178 128
-88 30 -100 31 -277 34 -102 1 -196 0 -210 -2z"/>
<path d="M5850 9145 c-84 -14 -139 -35 -188 -72 -42 -32 -60 -68 -68 -140 l-7
-58 25 26 c13 14 58 42 100 63 195 95 515 92 848 -7 63 -19 127 -37 142 -41
37 -8 254 -108 318 -146 28 -16 53 -30 56 -30 2 0 -7 23 -21 50 -32 63 -74 91
-295 193 -187 86 -348 140 -465 157 -120 18 -358 20 -445 5z"/>
<path d="M1927 9009 c-49 -5 -106 -13 -128 -19 -42 -12 -52 -35 -19 -45 31
-10 62 -60 54 -90 -6 -24 -5 -25 21 -15 14 5 68 10 120 10 110 0 210 -26 365
-95 104 -46 328 -173 364 -207 11 -10 26 -18 33 -18 22 0 -87 118 -137 149
-25 15 -101 63 -169 106 -69 43 -152 89 -185 103 -86 34 -236 56 -300 42 -27
-6 -51 -8 -54 -6 -2 3 9 8 24 11 16 4 40 10 54 15 50 16 179 32 207 26 47 -12
162 -66 219 -102 l54 -34 -12 27 c-19 45 -49 73 -123 114 l-70 39 -115 -1
c-63 -1 -155 -6 -203 -10z"/>
<path d="M5970 8910 c-166 -17 -232 -39 -314 -103 -54 -43 -66 -78 -54 -149
l10 -57 53 54 c96 95 245 131 510 122 134 -4 191 -12 351 -45 105 -22 254 -59
330 -82 159 -49 353 -135 337 -151 -6 -6 -44 -11 -84 -12 -62 -2 -98 5 -214
40 -209 63 -546 124 -726 130 -163 6 -288 -7 -358 -38 -57 -25 -124 -80 -151
-124 -21 -34 -21 -38 -8 -113 l14 -77 16 35 c17 38 89 110 134 133 74 37 172
50 383 51 182 0 224 -3 356 -27 83 -15 175 -33 205 -40 l55 -13 -110 -7 c-60
-4 -240 -14 -400 -22 -323 -17 -360 -22 -443 -64 -110 -55 -169 -125 -163
-189 2 -14 -9 -33 -28 -51 -40 -38 -40 -54 1 -34 28 15 32 15 43 -1 11 -15 14
-13 24 11 13 30 109 100 183 133 55 24 171 46 288 55 47 3 216 19 375 35 879
90 1800 152 1887 127 45 -12 76 25 84 100 l6 62 -38 7 c-70 13 -674 -14 -924
-42 -82 -9 -236 -33 -314 -50 -38 -8 -70 -13 -71 -12 -2 2 -12 21 -23 43 -37
72 -99 114 -285 189 -309 126 -703 200 -937 176z"/>
<path d="M7960 8763 l-105 -53 105 0 c58 0 114 -3 125 -6 18 -5 20 -1 17 40
-7 79 -21 81 -142 19z"/>
<path d="M1808 8715 c-19 -11 -31 -30 -42 -70 -9 -30 -19 -62 -23 -71 -5 -14
-2 -14 28 2 29 16 57 19 204 19 165 0 174 -1 301 -37 72 -20 155 -46 185 -58
72 -29 301 -154 339 -187 17 -14 32 -24 34 -22 2 2 -9 32 -24 66 -33 73 -34
74 -300 219 -147 80 -221 108 -370 139 -94 20 -295 20 -332 0z"/>
<path d="M1785 8471 c-68 -12 -81 -25 -109 -108 -32 -95 -32 -98 -3 -69 16 16
44 27 89 35 90 15 327 14 423 -3 94 -17 267 -59 310 -76 86 -32 287 -129 340
-162 33 -20 61 -33 63 -28 8 23 -23 97 -53 125 -18 17 -116 72 -218 122 -191
94 -279 123 -482 159 -82 14 -288 17 -360 5z"/>
<path d="M8189 8276 c-2 -2 -146 -9 -319 -16 -336 -12 -838 -45 -1320 -85
-472 -40 -490 -44 -667 -132 -97 -48 -114 -60 -124 -88 -12 -31 -15 -33 -76
-38 -71 -5 -113 -27 -113 -59 0 -22 0 -22 146 -2 37 5 42 3 47 -17 3 -12 4
-26 2 -29 -2 -4 -46 -10 -96 -13 -99 -7 -119 -16 -119 -53 0 -23 0 -23 113
-17 61 3 114 8 117 10 2 2 3 19 1 38 -3 44 17 57 144 90 78 20 105 32 126 55
35 38 100 55 274 74 179 20 640 53 910 66 116 6 238 13 271 16 47 5 73 2 108
-11 26 -10 48 -16 49 -14 2 2 14 21 26 42 40 65 121 93 375 126 141 19 183 32
170 52 -5 9 -37 12 -45 5z"/>
<path d="M1745 8214 c-86 -12 -103 -22 -119 -72 -8 -26 -18 -65 -22 -87 -6
-38 -5 -39 10 -19 19 27 107 41 301 50 156 6 324 -14 505 -62 160 -42 416
-143 441 -174 15 -17 18 -18 23 -4 13 34 6 90 -14 112 -50 54 -406 190 -610
233 -84 18 -143 23 -295 25 -104 1 -203 0 -220 -2z"/>
<path d="M3654 8163 c-25 -2 -50 -13 -62 -26 l-21 -22 177 0 c97 0 195 -4 217
-9 37 -8 39 -8 26 8 -31 37 -73 49 -186 51 -60 2 -129 1 -151 -2z"/>
<path d="M4600 8130 c-9 -6 6 -7 45 -3 33 3 62 7 64 9 10 9 -95 3 -109 -6z"/>
<path d="M4573 8080 c-18 -4 -40 -13 -48 -20 -16 -13 -21 -45 -6 -36 5 3 39
12 76 20 56 12 74 12 118 0 66 -18 78 -17 71 1 -13 32 -136 53 -211 35z"/>
<path d="M3568 8065 c-5 -5 -8 -19 -8 -32 l0 -24 118 4 c110 5 199 -1 285 -18
36 -7 37 -7 37 23 0 24 -5 31 -27 36 -43 10 -397 19 -405 11z"/>
<path d="M5639 8025 c-15 -8 -32 -29 -38 -46 -14 -42 -15 -42 12 -25 12 8 43
18 70 21 44 7 47 9 47 36 0 26 -3 29 -32 29 -18 -1 -45 -7 -59 -15z"/>
<path d="M4585 8003 c-68 -15 -86 -25 -83 -46 2 -12 10 -21 17 -19 93 20 170
23 224 9 58 -15 58 -15 55 6 -5 35 -138 67 -213 50z"/>
<path d="M1785 7961 c-170 -12 -181 -16 -199 -65 -19 -50 -38 -137 -32 -143 2
-3 7 5 11 17 4 12 22 28 40 36 44 18 329 38 435 29 225 -17 698 -132 787 -190
21 -14 22 -13 29 30 11 78 -1 88 -168 145 -339 115 -624 160 -903 141z"/>
<path d="M3563 7942 c-4 -16 -21 -20 -103 -29 -105 -10 -130 -22 -130 -58 0
-22 1 -22 57 -9 31 7 118 16 192 20 75 4 127 10 117 14 -63 22 125 27 242 6
71 -12 72 -12 66 8 -3 12 -9 24 -13 29 -16 17 -171 37 -293 37 -118 0 -130 -2
-135 -18z"/>
<path d="M4585 7905 c-5 -2 -23 -6 -38 -9 -22 -5 -28 -12 -25 -29 3 -20 7 -22
48 -17 70 7 162 6 198 -3 31 -8 33 -7 30 14 -2 18 -13 25 -53 36 -46 12 -136
16 -160 8z"/>
<path d="M7155 7893 c-27 -1 -142 -7 -255 -13 -276 -14 -563 -39 -574 -50 -11
-11 48 -28 149 -42 106 -14 276 -5 450 25 77 14 176 28 220 32 91 8 220 -7
265 -30 18 -9 31 -11 35 -5 3 6 42 10 86 10 77 0 79 1 69 20 -9 17 -21 20 -80
20 -39 0 -70 4 -70 8 0 10 -171 33 -217 30 -15 -1 -50 -3 -78 -5z"/>
<path d="M3835 7818 c22 -11 41 -25 43 -29 2 -5 22 -14 44 -19 35 -10 42 -9
54 7 33 43 2 61 -111 62 l-70 0 40 -21z"/>
<path d="M3460 7810 c-108 -10 -120 -15 -120 -52 0 -25 3 -29 18 -23 31 12
194 24 328 25 116 0 134 -2 157 -20 31 -25 37 -25 37 -1 0 13 -18 29 -57 50
-54 30 -61 31 -167 30 -61 -1 -149 -5 -196 -9z"/>
<path d="M4580 7810 c-31 -8 -60 -32 -60 -51 0 -4 15 -6 33 -4 107 13 133 13
193 -1 79 -18 88 -16 66 14 -31 40 -148 61 -232 42z"/>
<path d="M7450 7745 l0 -25 102 0 101 0 -23 25 c-21 23 -31 25 -102 25 -77 0
-78 0 -78 -25z"/>
<path d="M6070 7738 c-109 -10 -237 -44 -252 -67 -8 -13 -29 -15 -126 -13
-140 4 -156 0 -176 -39 l-15 -30 42 5 c23 3 92 7 152 8 l110 3 3 -27 3 -28
-83 -1 c-46 0 -132 -4 -192 -8 -103 -8 -110 -10 -140 -40 l-31 -31 30 5 c17 4
118 9 225 13 191 7 195 7 198 29 4 26 74 56 174 74 94 17 860 24 1065 10 191
-13 337 -30 371 -42 12 -5 22 -16 22 -25 0 -14 8 -16 53 -10 28 3 74 6 100 6
45 0 47 1 37 20 -9 18 -21 20 -100 20 -90 0 -90 0 -90 26 l0 25 95 -3 c74 -2
96 0 100 11 12 30 -16 41 -105 41 -56 0 -97 5 -116 14 -39 20 -127 33 -329 51
-189 16 -861 19 -1025 3z"/>
<path d="M4485 7709 c-22 -4 -58 -14 -80 -23 -40 -14 -39 -15 70 -15 114 -1
420 -27 439 -38 6 -3 0 6 -14 20 -21 22 -43 30 -145 47 -120 20 -195 23 -270
9z"/>
<path d="M1652 7700 c-40 -5 -79 -13 -87 -20 -18 -15 -42 -82 -50 -140 l-6
-45 28 32 c26 31 34 34 118 43 173 19 363 12 590 -20 224 -33 399 -68 492
-101 89 -31 88 -31 91 28 3 48 1 53 -25 66 -87 46 -333 102 -665 152 -103 16
-357 18 -486 5z"/>
<path d="M3418 7681 c-73 -7 -82 -12 -92 -55 -6 -25 -5 -28 11 -21 59 26 455
34 522 10 22 -8 41 -12 41 -10 0 23 -25 55 -53 68 -29 14 -65 17 -199 15 -89
0 -193 -4 -230 -7z"/>
<path d="M4270 7611 c-5 -11 -10 -21 -10 -23 0 -2 51 -2 114 0 141 4 502 -23
576 -43 30 -8 56 -13 57 -11 13 13 -18 39 -61 51 -67 20 -366 45 -533 45 -121
0 -133 -2 -143 -19z"/>
<path d="M8615 7609 l-30 -21 70 6 c39 3 92 6 119 6 42 0 47 2 36 15 -21 25
-157 21 -195 -6z"/>
<path d="M3415 7560 c-91 -11 -138 -28 -158 -56 -11 -14 -17 -28 -14 -31 3 -3
55 2 116 11 75 11 180 16 331 16 221 0 222 0 266 -26 49 -29 59 -27 50 9 -7
29 -80 64 -164 78 -65 10 -337 10 -427 -1z"/>
<path d="M8603 7553 c-30 -3 -46 -10 -54 -24 -10 -20 -8 -20 153 -13 90 4 165
8 167 11 3 2 -1 9 -8 16 -12 12 -173 19 -258 10z"/>
<path d="M4226 7524 c-3 -9 -6 -19 -6 -22 0 -4 52 -5 115 -3 165 5 450 -16
588 -43 114 -22 129 -21 109 10 -23 36 -348 74 -633 74 -143 0 -168 -2 -173
-16z"/>
<path d="M6131 7478 c-85 -5 -178 -17 -225 -29 -45 -11 -88 -20 -96 -19 -56 3
-271 0 -346 -5 -90 -7 -92 -7 -97 -33 -3 -15 -4 -28 -3 -30 2 -1 63 2 137 8
162 12 296 13 303 2 3 -5 2 -18 -1 -30 -5 -21 -11 -22 -147 -23 -77 -1 -175
-4 -216 -8 l-75 -6 -3 -34 c-3 -33 -3 -34 27 -28 17 4 111 9 208 13 152 6 181
9 195 24 36 38 203 55 613 66 298 7 909 -17 1028 -42 20 -4 27 -2 27 10 0 15
27 22 55 16 6 -1 52 1 104 5 l94 7 -31 20 c-26 16 -49 20 -132 19 -93 0 -100
1 -100 20 0 11 -10 23 -22 28 -98 37 -956 69 -1297 49z"/>
<path d="M8591 7471 c-25 -3 -46 -11 -48 -17 -8 -25 23 -31 132 -22 61 5 134
8 163 6 43 -2 52 0 52 13 0 9 -10 19 -22 23 -28 7 -216 5 -277 -3z"/>
<path d="M7452 7448 c3 -20 11 -24 67 -31 39 -5 76 -4 93 2 16 6 35 8 43 5 11
-5 15 1 15 20 l0 26 -111 0 c-109 0 -110 0 -107 -22z"/>
<path d="M1574 7443 c-56 -7 -93 -71 -93 -163 l-1 -25 18 23 c13 17 34 25 82
32 113 16 407 12 603 -10 100 -11 209 -23 242 -26 97 -10 324 -53 345 -66 25
-16 26 -13 35 49 6 50 6 52 -22 66 -36 19 -237 64 -340 77 -374 46 -424 50
-628 48 -115 0 -224 -3 -241 -5z"/>
<path d="M3266 7425 c-62 -11 -84 -19 -98 -37 -22 -29 -23 -41 0 -34 9 2 64
12 122 22 149 24 518 15 634 -15 43 -12 81 -21 83 -21 2 0 3 12 1 26 -3 22
-13 30 -68 50 -62 23 -75 24 -330 23 -171 -1 -293 -6 -344 -14z"/>
<path d="M4191 7421 l-12 -21 198 0 c243 -1 413 -12 562 -39 139 -25 130 -25
124 -2 -4 14 -20 23 -57 31 -126 27 -299 42 -542 47 -259 5 -262 5 -273 -16z"/>
<path d="M8605 7391 c-18 -4 -31 -14 -33 -24 -4 -18 5 -18 150 -12 151 7 177
13 164 34 -8 12 -228 14 -281 2z"/>
<path d="M4167 7343 c-4 -3 -7 -15 -7 -25 0 -15 6 -17 38 -12 74 11 621 -15
742 -36 141 -24 140 -24 140 0 0 11 -4 20 -8 20 -5 0 -59 9 -121 20 -63 12
-168 25 -235 30 -139 11 -539 13 -549 3z"/>
<path d="M3200 7315 c-83 -12 -97 -16 -117 -41 -12 -16 -20 -30 -18 -32 2 -2
60 4 130 13 181 25 635 17 743 -12 l72 -19 0 22 c0 32 -16 40 -110 60 -114 23
-561 29 -700 9z"/>
<path d="M8643 7303 c-13 -2 -23 -8 -23 -12 0 -17 27 -30 48 -24 13 3 22 1 22
-6 0 -8 5 -9 19 -1 11 5 59 10 108 10 l88 1 -24 19 c-20 17 -37 20 -120 19
-53 -1 -106 -4 -118 -6z"/>
<path d="M7474 7275 c-12 -29 7 -35 115 -35 67 0 111 -4 118 -11 9 -9 14 -5
19 16 5 18 2 30 -7 36 -8 5 -65 9 -127 9 -89 0 -114 -3 -118 -15z"/>
<path d="M4157 7253 c-4 -3 -7 -16 -7 -27 0 -21 3 -21 343 -23 317 -2 448 -11
575 -38 17 -4 22 -1 22 15 0 11 -4 20 -9 20 -5 0 -63 9 -129 20 -161 27 -776
53 -795 33z"/>
<path d="M8735 7231 c-78 -8 -95 -14 -95 -38 0 -11 6 -14 23 -9 12 4 76 10
141 13 118 6 119 6 97 25 -24 19 -43 20 -166 9z"/>
<path d="M6040 7209 c-80 -5 -172 -13 -205 -19 -40 -6 -61 -7 -63 0 -5 13
-381 13 -401 1 -8 -6 -11 -18 -8 -32 l6 -24 195 4 195 3 -8 -28 -7 -29 -185
-5 -184 -5 0 -29 0 -29 175 2 c96 1 179 6 185 11 64 53 1084 65 1710 20 255
-18 285 -19 285 -4 0 27 -45 43 -143 50 -95 7 -97 8 -97 32 l0 25 100 -5 c59
-3 105 -10 115 -18 23 -19 20 22 -4 44 -16 15 -39 17 -158 15 -76 -1 -322 6
-548 15 -435 17 -718 18 -955 5z"/>
<path d="M3110 7199 c-86 -8 -97 -12 -117 -37 -30 -36 -25 -36 145 -18 275 31
743 13 860 -32 10 -3 13 3 10 24 -4 36 -42 50 -172 64 -110 12 -594 11 -726
-1z"/>
<path d="M1533 7193 c-49 -5 -70 -28 -95 -106 -14 -44 -14 -48 1 -42 40 17
483 17 712 1 359 -26 567 -46 596 -57 14 -5 27 -8 29 -6 2 1 4 27 6 56 l3 54
-40 14 c-97 34 -754 94 -1000 91 -93 -1 -189 -3 -212 -5z"/>
<path d="M4140 7151 c-5 -11 -10 -23 -10 -28 0 -4 78 -6 172 -5 196 4 583 -12
673 -28 126 -22 117 -22 113 3 -3 20 -13 24 -108 39 -97 16 -524 37 -742 38
-76 0 -89 -2 -98 -19z"/>
<path d="M8716 7156 c-79 -13 -130 -35 -114 -51 3 -3 36 -1 75 5 38 5 118 11
176 12 59 2 107 5 107 8 -1 35 -106 46 -244 26z"/>
<path d="M7856 7111 c-3 -5 4 -9 17 -8 12 0 42 -4 67 -8 41 -8 44 -7 31 8 -15
18 -105 24 -115 8z"/>
<path d="M3060 7084 c-126 -13 -136 -16 -156 -42 -12 -15 -21 -29 -19 -31 2
-2 59 3 127 10 231 24 827 8 986 -27 21 -4 23 -1 20 23 -3 24 -9 30 -51 40
-146 36 -678 52 -907 27z"/>
<path d="M8755 7080 c-128 -11 -173 -20 -186 -36 -6 -8 -10 -17 -7 -19 3 -3
47 -1 99 5 52 5 138 10 192 10 90 0 97 1 97 20 0 15 -7 20 -29 20 -16 0 -41 2
-57 4 -16 2 -65 0 -109 -4z"/>
<path d="M4113 7063 c-7 -2 -13 -14 -13 -26 l0 -22 393 -1 c278 -1 422 -6 495
-16 102 -14 103 -14 100 7 -3 17 -15 22 -78 32 -154 25 -851 45 -897 26z"/>
<path d="M7847 7061 c-34 -13 32 -35 111 -37 59 -1 71 1 60 11 -7 7 -40 17
-72 24 -67 12 -73 13 -99 2z"/>
<path d="M10016 7054 c-77 -8 -140 -15 -142 -16 -1 -2 -6 -16 -10 -32 l-7 -29
45 6 c25 4 101 9 169 12 68 4 129 8 135 10 6 2 9 17 6 34 -5 36 8 35 -196 15z"/>
<path d="M8610 6988 c-54 -6 -81 -15 -95 -30 l-20 -20 50 7 c28 5 127 11 220
14 142 5 170 8 170 21 0 12 -21 15 -125 16 -69 1 -159 -3 -200 -8z"/>
<path d="M7500 6965 l0 -25 115 0 c106 0 115 2 115 19 0 21 -49 31 -161 31
-67 0 -69 -1 -69 -25z"/>
<path d="M7955 6979 c-10 -15 51 -29 123 -28 72 1 75 1 47 14 -33 14 -164 25
-170 14z"/>
<path d="M2960 6968 c-96 -8 -119 -13 -137 -30 -44 -42 -33 -44 150 -30 204
16 671 10 907 -12 85 -8 156 -13 157 -13 1 1 -1 14 -4 28 -5 26 -8 27 -111 38
-59 7 -154 16 -212 21 -131 12 -596 10 -750 -2z"/>
<path d="M4097 6966 c-4 -10 -7 -22 -7 -27 0 -5 124 -9 298 -9 288 -1 573 -12
660 -26 38 -6 42 -5 42 14 0 16 -8 22 -32 27 -105 18 -253 26 -584 32 -347 6
-371 5 -377 -11z"/>
<path d="M5385 6961 c-3 -2 -5 -16 -5 -31 l0 -26 158 0 157 1 0 -30 0 -30
-157 0 c-149 0 -157 -1 -162 -20 -14 -49 -19 -48 192 -41 108 3 289 10 402 15
227 11 822 12 1258 2 l282 -6 0 23 c0 21 3 22 111 22 109 0 110 0 107 23 -3
21 -8 22 -109 25 -97 2 -107 5 -112 22 -4 16 -14 20 -54 20 -26 0 -178 5 -338
10 -568 20 -1271 12 -1381 -16 -18 -5 -23 -1 -26 18 -3 23 -3 23 -161 24 -86
0 -160 -2 -162 -5z"/>
<path d="M8530 6910 c-47 -3 -157 -4 -245 -2 -129 4 -166 2 -189 -10 l-28 -15
25 -16 c21 -13 35 -15 84 -6 32 5 211 13 398 17 312 6 340 8 343 25 3 16 -9
17 -150 15 -84 -1 -191 -4 -238 -8z"/>
<path d="M4090 6856 l0 -25 373 0 c204 -1 428 -5 496 -10 69 -6 128 -8 133 -5
19 12 6 34 -24 39 -71 13 -328 22 -645 24 l-333 1 0 -24z"/>
<path d="M8435 6830 c-236 -6 -285 -11 -285 -30 0 -21 28 -27 85 -19 33 4 192
9 352 9 274 1 294 2 303 20 18 33 35 33 -455 20z"/>
<path d="M4108 6784 c-5 -4 -8 -16 -8 -26 0 -17 18 -18 358 -18 198 0 420 -3
495 -7 133 -6 137 -6 137 14 0 20 -7 21 -177 27 -362 12 -798 18 -805 10z"/>
<path d="M7520 6770 c0 -19 7 -20 94 -20 52 0 101 -3 110 -6 11 -4 16 0 16 14
0 28 -18 32 -126 32 -87 0 -94 -1 -94 -20z"/>
<path d="M8365 6753 c-16 -1 -59 -6 -94 -9 -58 -5 -62 -7 -48 -22 14 -14 53
-15 314 -13 233 2 301 5 312 16 31 31 2 35 -227 34 -125 -1 -240 -4 -257 -6z"/>
<path d="M2860 6730 c-85 -5 -85 -5 -85 -32 l0 -28 642 -2 c639 -3 643 -3 637
17 -4 11 -11 23 -17 26 -20 14 -1005 29 -1177 19z"/>
<path d="M5370 6700 l0 -30 140 0 140 0 0 -30 0 -30 -135 0 -135 0 0 -28 0
-29 202 -7 c111 -3 635 -3 1165 0 899 7 963 8 963 24 0 21 -37 30 -121 30 -51
0 -59 3 -59 19 0 24 26 31 123 31 68 0 77 2 77 19 0 15 -10 19 -52 25 -80 9
-146 7 -150 -5 -2 -7 -172 -9 -543 -7 -646 4 -1224 0 -1282 -8 -42 -5 -43 -5
-43 25 l0 31 -145 0 -145 0 0 -30z"/>
<path d="M9907 6713 c-22 -4 -28 -9 -25 -26 3 -22 7 -22 181 -25 l178 -2 -3
27 -3 28 -150 1 c-82 1 -163 -1 -178 -3z"/>
<path d="M4110 6665 l0 -25 490 0 c470 0 490 1 490 18 0 17 -12 20 -112 25
-62 4 -283 7 -490 7 l-378 0 0 -25z"/>
<path d="M8331 6663 l-33 -4 23 -17 c21 -15 53 -16 264 -13 132 1 241 4 243 6
1 1 0 10 -4 19 -5 14 -31 16 -233 14 -124 0 -241 -3 -260 -5z"/>
<path d="M4110 6575 l0 -25 453 -2 c530 -3 527 -4 527 23 0 17 -8 19 -87 19
-49 0 -269 2 -490 5 l-403 4 0 -24z"/>
<path d="M8410 6580 c0 -5 6 -10 14 -10 8 0 18 5 21 10 3 6 -3 10 -14 10 -12
0 -21 -4 -21 -10z"/>
<path d="M8474 6574 c3 -8 6 -18 6 -20 0 -2 84 -4 186 -4 171 0 185 1 182 18
-3 15 -21 17 -192 20 -169 2 -188 1 -182 -14z"/>
<path d="M4275 6500 c3 -6 17 -10 30 -10 15 0 26 -7 30 -20 6 -19 13 -20 273
-14 147 4 268 7 268 8 1 0 4 10 8 22 6 20 5 20 -304 22 -205 1 -309 -1 -305
-8z"/>
<path d="M5005 6500 c3 -5 12 -10 20 -10 8 0 17 5 20 10 4 6 -5 10 -20 10 -15
0 -24 -4 -20 -10z"/>
<path d="M8490 6490 c0 -19 7 -20 185 -20 178 0 185 1 185 20 0 19 -7 20 -185
20 -178 0 -185 -1 -185 -20z"/>
<path d="M7540 6475 c0 -25 1 -25 85 -25 84 0 85 0 85 25 0 25 -1 25 -85 25
-84 0 -85 0 -85 -25z"/>
<path d="M2810 6458 c44 -32 47 -33 165 -36 177 -4 1042 12 1050 20 4 3 4 16
0 27 -6 21 -8 21 -633 21 l-626 0 44 -32z"/>
<path d="M5380 6460 l0 -30 114 0 c109 0 114 1 120 23 3 12 6 25 6 30 0 4 -54
7 -120 7 l-120 0 0 -30z"/>
<path d="M2495 6430 c-121 -4 -402 -8 -624 -9 l-404 -1 7 -46 c3 -26 6 -55 6
-65 0 -18 14 -19 278 -19 369 0 957 25 983 41 7 4 13 28 13 56 1 41 -2 48 -19
49 -11 0 -119 -2 -240 -6z"/>
<path d="M5604 6401 l-6 -31 -113 0 c-94 0 -114 -3 -119 -16 -16 -42 -10 -44
100 -44 58 0 135 -5 172 -10 137 -21 553 -27 1192 -19 360 5 665 11 677 14 13
3 25 16 29 30 6 23 10 24 87 27 76 3 82 5 85 26 3 21 1 22 -82 22 -47 0 -86 4
-86 8 0 5 -393 9 -872 9 -480 0 -915 3 -966 8 l-92 7 -6 -31z"/>
<path d="M8490 6411 c0 -17 10 -20 73 -26 105 -10 271 6 275 26 2 13 -20 15
-173 17 -167 2 -175 2 -175 -17z"/>
<path d="M4603 6412 c-270 -2 -278 -4 -254 -41 8 -12 51 -13 261 -8 138 3 254
8 257 10 2 3 3 14 1 24 -3 17 -18 18 -265 15z"/>
<path d="M3740 6370 c-140 -4 -395 -8 -567 -9 -197 0 -314 -5 -318 -11 -3 -6
-3 -20 0 -31 7 -21 9 -21 323 -15 558 10 806 16 830 21 28 7 33 56 5 53 -10
-1 -133 -5 -273 -8z"/>
<path d="M8410 6333 c-24 -9 -50 -35 -50 -50 0 -10 40 -13 207 -13 203 0 206
0 189 19 -17 19 -17 20 10 23 15 2 29 9 32 16 3 9 -38 12 -185 11 -103 0 -195
-3 -203 -6z"/>
<path d="M4595 6318 c-27 -3 -92 -4 -142 -1 l-93 6 0 -26 c0 -13 6 -27 13 -29
6 -2 86 -1 177 3 91 4 198 8 238 8 68 1 72 2 72 24 0 21 -3 22 -108 22 -59 0
-129 -3 -157 -7z"/>
<path d="M7605 6302 c-60 -3 -72 -7 -88 -28 l-18 -24 53 0 c29 0 77 3 106 6
46 6 52 9 52 30 0 17 -5 23 -17 22 -10 -1 -49 -4 -88 -6z"/>
<path d="M3480 6264 c0 -5 9 -20 20 -34 l19 -25 217 -3 c258 -4 284 -1 284 33
l0 25 -232 0 c-128 0 -250 3 -270 6 -21 4 -38 3 -38 -2z"/>
<path d="M3173 6243 c20 -20 154 -63 195 -63 75 0 92 8 92 41 l0 29 -147 0
c-80 0 -143 -3 -140 -7z"/>
<path d="M5325 6220 l-16 -30 35 0 c34 0 35 0 25 -30 -10 -26 -16 -30 -50 -30
-28 0 -41 -5 -49 -19 -17 -33 -12 -41 29 -41 33 0 40 4 44 23 2 12 5 4 6 -18
1 -50 -12 -65 -58 -65 -20 -1 -65 -7 -101 -15 -36 -8 -79 -14 -97 -15 -17 0
-44 -5 -60 -12 -27 -11 -25 -12 37 -19 85 -9 535 -11 623 -2 65 6 67 7 67 33
0 25 -4 28 -52 34 -29 3 -76 6 -104 6 -49 0 -51 1 -46 25 4 25 6 25 103 25 78
0 99 -3 99 -14 0 -16 27 -21 233 -37 175 -14 837 -7 992 11 90 10 234 35 240
42 2 2 6 25 10 52 l8 49 -59 -6 c-33 -3 -224 -11 -425 -18 -351 -12 -674 -6
-948 18 -72 6 -73 6 -66 -15 6 -21 4 -22 -82 -22 -64 0 -95 4 -111 16 -19 13
-22 13 -22 0 0 -25 -16 -27 -43 -6 -30 24 -37 25 -37 5 0 -16 -16 -20 -24 -6
-3 5 -15 7 -26 4 -28 -8 -26 23 3 32 20 7 45 9 182 15 35 1 38 3 18 12 -12 6
-23 19 -26 29 -5 17 -16 19 -121 19 l-115 0 -16 -30z m72 -172 c-3 -8 -6 -5
-6 6 -1 11 2 17 5 13 3 -3 4 -12 1 -19z m101 -8 c10 -17 10 -21 -4 -27 -16 -6
-34 11 -34 35 0 19 24 14 38 -8z"/>
<path d="M2912 6224 c18 -19 82 -33 148 -34 33 0 53 6 75 25 l30 24 -135 1
c-124 0 -133 -1 -118 -16z"/>
<path d="M4620 6231 c0 -8 -40 -11 -131 -11 -130 0 -130 0 -127 -22 3 -22 6
-23 123 -22 66 0 175 4 243 9 109 7 122 10 122 27 0 16 -9 18 -69 18 -37 0
-89 3 -115 6 -31 5 -46 3 -46 -5z"/>
<path d="M7360 6202 c-6 -2 -10 -12 -10 -22 0 -24 37 -30 192 -30 133 0 168 8
168 38 0 15 -16 17 -170 17 -94 0 -175 -1 -180 -3z"/>
<path d="M8308 6183 c-6 -7 -30 -13 -53 -13 -38 0 -112 -17 -170 -40 -39 -15
179 -23 433 -16 294 8 312 10 312 40 0 11 -4 26 -8 31 -11 16 -501 13 -514 -2z"/>
<path d="M5693 6183 c9 -2 25 -2 35 0 9 3 1 5 -18 5 -19 0 -27 -2 -17 -5z"/>
<path d="M3494 6145 c-13 -32 3 -42 82 -48 97 -9 407 -9 428 -1 9 3 16 16 16
28 0 21 -3 21 -182 21 -101 0 -218 4 -261 8 -65 7 -78 5 -83 -8z"/>
<path d="M9950 6137 c0 -29 15 -33 198 -43 l122 -7 0 26 c0 30 -11 32 -202 43
l-118 6 0 -25z"/>
<path d="M4605 6134 c-16 -12 -41 -15 -128 -12 -106 3 -107 3 -107 -20 0 -23
0 -23 113 -18 303 15 352 20 355 39 3 15 -6 17 -76 17 -44 0 -92 2 -108 5 -18
3 -37 -1 -49 -11z"/>
<path d="M7350 6101 c0 -36 26 -44 158 -49 134 -4 176 4 184 35 4 17 -5 18
-144 20 -83 1 -161 4 -174 7 -19 5 -24 2 -24 -13z"/>
<path d="M4596 6044 c-5 -13 -23 -15 -116 -12 -98 3 -111 1 -116 -14 -11 -36
5 -41 120 -35 67 3 112 9 114 16 2 7 43 11 117 11 94 0 114 3 119 16 3 9 4 20
0 25 -3 5 -56 9 -119 9 -93 0 -114 -3 -119 -16z"/>
<path d="M8735 6043 c-47 -12 -124 -16 -365 -16 -168 0 -343 5 -390 11 l-85
11 -37 -37 c-21 -20 -35 -39 -30 -43 4 -4 102 -15 217 -25 204 -16 579 -15
690 2 44 7 72 35 81 84 7 35 6 35 -81 13z"/>
<path d="M3478 6026 c-3 -14 -3 -28 0 -31 3 -3 38 -5 78 -5 40 0 76 -4 79 -10
7 -11 302 -14 354 -4 24 5 31 12 31 30 l0 23 -192 5 c-106 3 -227 8 -269 11
-76 6 -76 6 -81 -19z"/>
<path d="M7347 6009 c-10 -39 34 -54 176 -57 132 -4 157 2 157 37 0 14 -18 16
-143 17 -85 1 -151 6 -164 12 -18 10 -22 8 -26 -9z"/>
<path d="M4594 5953 c-10 -16 -27 -18 -123 -17 -108 0 -112 0 -109 -20 3 -20
9 -21 111 -21 74 0 110 4 115 12 5 8 46 13 122 15 111 3 115 4 118 26 3 22 2
22 -110 22 -97 0 -115 -3 -124 -17z"/>
<path d="M7120 5938 c-30 -5 -82 -13 -115 -19 -206 -38 -605 -48 -935 -25
-129 10 -250 20 -267 23 -28 4 -33 2 -33 -15 0 -16 -8 -23 -37 -28 -35 -7
-325 -1 -614 13 l-136 6 -7 -28 c-5 -18 -3 -31 4 -35 7 -4 51 -8 99 -9 47 -1
199 -6 336 -12 166 -6 267 -7 300 0 42 8 52 7 62 -6 8 -10 55 -22 140 -36 108
-17 179 -20 458 -21 357 -1 496 10 543 43 20 14 51 20 123 24 105 6 159 25
159 56 0 10 3 33 6 50 7 35 8 35 -86 19z"/>
<path d="M3465 5919 c-10 -31 9 -39 103 -39 48 0 82 -4 82 -10 0 -11 308 -14
348 -4 14 4 22 14 22 28 0 21 -3 21 -187 21 -140 0 -187 3 -191 13 -2 8 -30
12 -87 12 -77 0 -84 -2 -90 -21z"/>
<path d="M7337 5917 c-8 -22 13 -46 51 -57 60 -16 233 -13 260 6 47 33 28 39
-121 39 -94 0 -149 4 -164 13 -17 9 -22 9 -26 -1z"/>
<path d="M7733 5867 c-13 -18 -23 -36 -23 -39 0 -11 32 -18 158 -35 219 -29
1008 -23 1027 8 3 4 -2 20 -11 36 l-16 28 -432 0 c-394 1 -508 6 -651 31 -26
4 -33 0 -52 -29z"/>
<path d="M4588 5868 c-14 -21 -22 -23 -122 -23 -103 0 -106 -1 -106 -22 0 -16
8 -25 27 -29 37 -10 191 12 208 29 10 10 42 15 112 16 91 2 112 8 113 34 0 4
-42 7 -94 7 -52 0 -101 2 -109 5 -8 4 -20 -4 -29 -17z"/>
<path d="M2905 5848 c-71 -5 -153 -10 -182 -11 -44 -2 -53 -5 -57 -23 -7 -27
-40 -34 -170 -34 -95 0 -104 -2 -123 -24 -13 -15 -36 -26 -64 -30 -205 -29
-793 -63 -907 -53 l-69 7 -16 -60 c-10 -33 -17 -64 -17 -70 0 -26 487 -3 840
41 131 16 168 24 180 39 13 15 42 20 200 30 143 9 194 16 225 30 22 11 81 24
130 29 50 5 114 15 143 21 l54 12 -7 37 c-9 52 -15 71 -23 69 -4 -1 -65 -5
-137 -10z"/>
<path d="M3444 5825 c-16 -50 -16 -50 106 -53 88 -2 116 -6 123 -17 6 -12 34
-15 140 -14 176 0 212 7 212 38 l0 25 -166 -3 c-149 -2 -168 -1 -184 16 -16
15 -35 18 -123 18 -61 0 -106 -4 -108 -10z"/>
<path d="M7356 5786 c-3 -11 -3 -23 0 -28 6 -9 247 -11 282 -2 14 4 22 14 22
28 0 20 -4 21 -149 21 -140 0 -150 -1 -155 -19z"/>
<path d="M4582 5768 c-5 -22 -50 -31 -141 -26 -72 3 -72 3 -69 -22 3 -24 6
-25 79 -28 82 -3 129 9 129 33 0 12 16 15 94 15 105 0 126 5 126 29 0 14 -14
16 -107 16 -92 0 -107 -2 -111 -17z"/>
<path d="M4950 5737 l0 -35 133 -6 c292 -13 566 -18 630 -11 65 7 67 8 67 36
l0 29 -72 -6 c-72 -6 -619 11 -710 22 l-48 6 0 -35z"/>
<path d="M7661 5719 c-20 -59 9 -70 260 -95 131 -13 248 -15 584 -12 469 4
475 5 452 61 l-14 32 -74 -1 c-680 -14 -1046 -1 -1180 41 -12 4 -20 -4 -28
-26z"/>
<path d="M3524 5723 c-105 -3 -112 -5 -118 -25 -3 -13 0 -26 7 -31 7 -4 69 -6
140 -5 113 3 127 1 127 -14 0 -23 61 -31 173 -23 137 9 147 12 147 42 l0 26
-95 -7 c-53 -3 -125 -3 -160 0 -54 6 -65 10 -65 25 0 14 -6 18 -22 17 -13 -1
-73 -4 -134 -5z"/>
<path d="M7130 5708 c-14 -5 -73 -10 -133 -10 -104 0 -107 -1 -113 -23 -10
-41 -103 -50 -479 -50 -324 1 -469 12 -584 45 -28 8 -31 6 -31 -14 0 -41 -73
-46 -430 -30 -173 7 -341 15 -372 18 l-58 6 0 -34 0 -33 93 -6 c50 -4 215 -12
366 -18 217 -10 287 -10 336 0 59 12 65 11 83 -7 44 -44 263 -71 583 -72 168
0 356 13 416 29 15 4 34 19 40 33 12 24 17 25 128 31 105 6 163 20 178 44 10
16 19 103 11 102 -5 0 -20 -5 -34 -11z"/>
<path d="M7530 5705 c-8 -9 -8 -15 -2 -15 12 0 26 19 19 26 -2 2 -10 -2 -17
-11z"/>
<path d="M4580 5674 l-10 -26 -100 4 c-55 2 -100 0 -100 -5 0 -4 5 -17 11 -28
10 -19 19 -20 112 -18 89 3 102 1 105 -14 3 -14 16 -17 83 -17 43 0 79 2 79 4
0 2 3 11 6 20 5 14 -6 16 -84 16 -80 0 -90 2 -95 19 -3 11 -2 22 1 25 3 3 50
6 104 6 91 0 98 1 98 20 0 19 -7 20 -100 20 -99 0 -101 0 -110 -26z"/>
<path d="M7308 5682 c-3 -12 -3 -23 0 -26 3 -3 45 -6 93 -6 78 0 90 2 99 20
10 18 8 20 -28 20 -22 0 -66 3 -99 6 -55 6 -60 5 -65 -14z"/>
<path d="M7490 5641 c0 -5 -3 -17 -6 -26 -5 -13 -2 -16 17 -13 32 4 41 48 10
48 -12 0 -21 -4 -21 -9z"/>
<path d="M3615 5608 c-33 -5 -99 -8 -148 -6 l-87 3 0 -34 0 -34 143 5 c78 3
149 7 157 9 10 3 16 -5 18 -22 4 -34 42 -41 162 -32 110 8 130 15 130 48 0 22
-3 25 -21 20 -28 -9 -253 -10 -268 -1 -6 4 -11 16 -11 26 0 26 -7 28 -75 18z"/>
<path d="M7279 5587 c-17 -30 0 -37 91 -37 87 0 100 5 100 40 0 5 -41 10 -91
12 -79 3 -92 1 -100 -15z"/>
<path d="M7625 5577 c-15 -58 -5 -71 70 -88 130 -30 308 -42 730 -46 436 -5
585 0 585 20 0 7 -5 29 -11 50 -9 34 -12 37 -37 30 -52 -14 -939 -9 -1071 6
-116 13 -204 29 -243 46 -13 5 -19 1 -23 -18z"/>
<path d="M4380 5549 c0 -34 29 -44 131 -44 73 0 99 -3 99 -12 0 -9 17 -13 55
-13 44 0 56 4 65 20 10 19 8 20 -60 20 -63 0 -70 2 -70 19 0 17 -5 19 -32 15
-18 -3 -68 -1 -110 4 -70 7 -78 6 -78 -9z"/>
<path d="M7445 5528 c-15 -22 -14 -23 11 -26 36 -5 54 4 54 28 0 28 -44 27
-65 -2z"/>
<path d="M4920 5503 c1 -35 55 -44 454 -73 249 -18 275 -18 345 -4 91 19 91
19 91 50 0 28 4 27 -78 10 -55 -12 -109 -11 -400 5 -383 21 -412 22 -412 12z"/>
<path d="M7255 5490 c-4 -12 -4 -24 -1 -28 4 -3 38 -6 76 -6 67 0 69 -1 64
-23 -6 -22 -4 -23 50 -23 53 0 56 1 56 25 0 23 -4 25 -46 25 -41 0 -45 2 -39
20 6 19 2 20 -59 20 -35 0 -71 3 -79 6 -10 3 -18 -2 -22 -16z"/>
<path d="M3530 5489 c-47 -5 -101 -6 -121 -3 -32 5 -37 2 -42 -18 -4 -12 -2
-27 3 -32 4 -4 69 -7 143 -4 140 4 167 12 167 49 0 21 -7 22 -150 8z"/>
<path d="M7105 5477 c-13 -8 -65 -12 -146 -11 l-126 1 -9 -36 c-15 -58 -57
-64 -444 -65 -278 -1 -337 2 -410 17 -46 10 -99 25 -117 32 -31 13 -33 13 -33
-5 0 -25 -56 -41 -170 -50 -79 -5 -82 -6 -45 -15 41 -9 121 -11 142 -4 6 2 11
0 12 -6 1 -6 -55 -10 -149 -10 -112 0 -150 -3 -150 -12 0 -10 -63 -13 -265
-15 -168 -2 -265 -7 -265 -13 0 -14 829 -29 852 -15 10 5 25 10 33 10 8 0 15
4 15 9 0 5 17 1 38 -8 81 -39 155 -46 472 -46 215 0 322 4 362 13 52 12 57 16
72 53 l16 39 128 0 c119 0 130 2 163 25 30 20 38 32 44 70 3 26 5 48 3 50 -2
2 -12 -2 -23 -8z"/>
<path d="M4400 5458 c0 -29 40 -42 138 -43 67 0 95 -4 101 -14 11 -18 61 -6
61 14 0 10 -11 15 -35 15 -24 0 -37 6 -45 20 -6 10 -16 17 -23 14 -7 -2 -54
-1 -105 4 -84 7 -92 6 -92 -10z"/>
<path d="M3935 5448 c-22 -5 -84 -8 -137 -5 -89 4 -98 2 -98 -14 0 -37 27 -49
108 -48 42 0 102 6 132 12 49 11 55 15 58 40 4 30 0 31 -63 15z"/>
<path d="M7560 5425 c-5 -14 -10 -31 -10 -36 0 -5 -11 -9 -24 -9 -14 0 -28 -4
-31 -10 -7 -11 -67 -13 -101 -4 -15 4 -20 11 -17 24 4 16 -3 19 -68 22 -61 2
-73 0 -77 -14 -3 -13 -17 -18 -60 -20 -45 -2 -58 -7 -60 -20 -3 -15 4 -18 46
-18 27 0 54 6 60 13 7 8 32 11 76 9 62 -4 66 -5 66 -28 0 -23 3 -24 70 -24 56
0 70 3 70 15 0 8 8 15 18 15 10 0 22 4 28 10 6 6 26 4 57 -5 53 -16 254 -47
427 -66 122 -14 599 -14 1330 -1 497 9 517 25 40 32 -316 5 -345 6 -348 22 -3
16 11 18 155 20 99 2 157 7 155 13 -1 6 -66 9 -175 7 -94 -1 -392 -3 -662 -4
-456 -2 -501 -1 -655 20 -151 20 -237 37 -282 57 -13 5 -20 0 -28 -20z"/>
<path d="M5508 5373 c6 -2 18 -2 25 0 6 3 1 5 -13 5 -14 0 -19 -2 -12 -5z"/>
<path d="M5295 5360 c-10 -16 17 -21 95 -18 48 2 75 7 78 16 5 15 -163 17
-173 2z"/>
<path d="M9827 5304 c-16 -17 10 -24 89 -24 64 0 85 3 82 13 -5 13 -158 23
-171 11z"/>
<path d="M4020 5285 c0 -13 29 -15 200 -15 l200 0 10 -24 c7 -20 20 -26 80
-36 40 -7 84 -10 99 -7 16 3 32 2 38 -4 6 -6 140 -8 344 -7 289 3 334 5 334
18 0 13 -33 15 -227 18 -126 1 -228 6 -228 11 0 5 -52 10 -116 13 -74 3 -118
9 -123 16 -6 9 -15 10 -40 1 -43 -15 -152 -4 -167 16 -17 22 -404 22 -404 0z"/>
<path d="M4819 5289 c16 -6 28 -6 35 1 7 7 -1 10 -24 9 -33 0 -34 -1 -11 -10z"/>
<path d="M3980 5232 c-39 -17 -190 -22 -274 -7 -37 6 -50 5 -57 -6 -15 -25
-10 -29 36 -29 31 0 47 -5 54 -17 8 -15 24 -18 103 -17 60 0 109 6 138 17 36
13 83 17 234 17 168 0 190 -2 202 -17 7 -10 14 -22 14 -27 0 -5 -78 -5 -180
-1 -156 6 -181 5 -186 -8 -10 -27 -118 -44 -242 -39 -38 1 -57 7 -69 22 -13
15 -30 20 -65 20 -42 0 -48 3 -48 21 0 15 -5 19 -17 15 -72 -21 -123 -28 -193
-25 -44 3 -80 1 -80 -3 0 -5 -47 -8 -105 -8 -104 0 -104 0 -96 -22 8 -22 15
-23 117 -26 213 -4 280 -2 334 12 34 9 59 11 65 5 5 -5 26 -9 46 -9 31 0 40
-5 51 -27 13 -27 15 -28 112 -31 113 -3 209 18 200 43 -5 13 10 15 98 15 58 0
146 -3 195 -6 87 -7 90 -8 74 -25 -14 -17 -32 -19 -169 -19 -132 0 -153 -2
-143 -14 16 -19 9 -22 -99 -41 -88 -16 -203 -15 -246 2 -9 3 -14 -2 -14 -16 0
-13 -6 -21 -17 -21 -10 0 -83 -7 -163 -15 -92 -9 -194 -12 -283 -8 l-139 6 4
-34 3 -34 155 -7 c89 -5 202 -4 265 2 174 16 181 15 199 -20 l14 -30 -71 1
c-71 2 -71 2 -20 8 51 6 72 15 60 27 -3 3 -68 -2 -144 -11 -221 -26 -648 -47
-631 -30 2 3 31 10 64 16 75 14 108 33 44 25 -25 -3 -89 -11 -142 -18 l-98
-12 0 -43 0 -43 1101 2 c1037 3 1102 4 1113 21 8 12 8 22 0 35 -10 15 -40 17
-350 20 -186 2 -456 -2 -599 -9 -175 -8 -271 -9 -290 -2 -22 7 31 11 210 17
230 6 241 7 281 31 38 22 54 25 147 25 81 0 107 3 117 15 10 12 10 18 0 30
-18 21 -230 22 -230 1 0 -9 -21 -18 -62 -25 -97 -18 -375 -32 -452 -24 -63 7
-70 10 -71 32 -2 23 0 23 54 18 30 -3 89 -2 131 3 41 5 109 12 150 15 92 8
114 18 85 39 -18 14 36 15 516 16 433 0 539 3 548 13 27 34 -6 37 -351 37
-199 0 -338 4 -338 9 0 5 -13 12 -30 16 -74 16 -18 25 159 25 147 0 191 3 200
14 26 32 -11 37 -226 34 -229 -3 -249 1 -260 53 l-5 29 -194 0 c-123 0 -194 4
-194 10 0 13 -7 12 -50 -8z"/>
<path d="M920 5200 c0 -19 7 -20 130 -20 119 0 130 2 140 20 10 20 8 20 -130
20 -133 0 -140 -1 -140 -20z"/>
<path d="M5002 5138 c-8 -8 -9 -15 -1 -25 9 -10 62 -13 235 -13 l224 0 0 25 0
25 -223 0 c-158 0 -226 -3 -235 -12z"/>
<path d="M1146 4664 c-4 -11 -40 -14 -189 -14 l-184 0 -7 -31 c-3 -17 -6 -35
-6 -40 0 -5 86 -9 191 -9 160 0 194 -3 203 -15 12 -17 105 -35 179 -35 41 0
49 3 57 25 5 14 8 30 6 37 -3 7 -7 25 -10 39 -5 25 -10 26 -88 32 -46 4 -97
11 -115 16 -24 7 -33 6 -37 -5z"/>
<path d="M5480 4494 c-8 -1 -602 -5 -1320 -8 l-1305 -5 -60 -21 c-40 -15 -93
-24 -160 -27 -132 -7 -399 13 -438 32 -34 17 -197 21 -212 6 -17 -16 -212 -70
-311 -86 -51 -8 -135 -15 -186 -15 -105 1 -306 23 -318 36 -5 5 -10 23 -12 39
l-3 30 -207 3 c-198 2 -208 2 -208 -17 0 -10 -3 -33 -6 -50 l-6 -31 215 0 216
0 3 -52 3 -52 50 -13 c79 -21 258 -31 364 -21 89 9 253 46 380 86 34 10 56 23
59 34 4 16 17 18 93 18 76 0 90 -3 98 -19 17 -30 94 -42 287 -43 184 -1 287
13 358 49 26 14 203 16 1355 20 1439 6 1361 3 1361 58 0 40 -38 61 -90 49z"/>
<path d="M10228 3812 c6 -17 104 -12 110 5 3 10 -12 12 -56 10 -44 -1 -58 -5
-54 -15z"/>
<path d="M6834 3445 c-10 -14 -48 -38 -84 -53 -57 -24 -78 -27 -177 -27 l-111
0 -7 -44 c-5 -31 -3 -46 7 -53 35 -24 462 35 489 68 6 7 7 19 2 27 -8 15 -91
107 -96 107 -2 0 -12 -11 -23 -25z"/>
<path d="M7290 3256 c0 -50 -35 -58 -289 -65 -162 -5 -205 -9 -209 -20 -5 -14
11 -13 65 5 13 4 12 0 -7 -16 -21 -18 -21 -21 -5 -15 11 4 85 10 165 13 154 5
292 -10 440 -47 l75 -19 -590 -1 c-518 -2 -600 -4 -672 -19 -45 -10 -85 -21
-89 -25 -4 -4 338 -7 759 -7 758 0 767 0 819 -21 53 -21 55 -21 767 -16 795 7
749 3 798 77 41 60 20 138 -49 180 -32 20 -53 20 -1005 20 l-973 0 0 -24z"/>
<path d="M4224 3260 c-122 -6 -150 -17 -184 -73 -39 -63 -15 -146 52 -187 29
-18 51 -20 195 -20 l161 0 17 -50 17 -50 1755 0 c1559 0 1754 2 1743 15 -11
13 -7 15 26 16 26 1 30 3 14 6 -14 2 -36 6 -50 9 -23 6 -24 7 -5 14 17 7 15 9
-12 9 -17 1 -52 10 -78 21 -46 20 -70 20 -1008 21 -782 1 -951 3 -902 13 l60
12 -50 8 c-70 10 -172 34 -227 53 -51 18 -55 26 -65 136 l-5 57 -671 -2 c-370
-2 -722 -5 -783 -8z m459 -182 c35 -25 76 -68 77 -80 0 -5 -72 -8 -159 -8
l-159 0 -7 31 c-10 44 4 51 54 29 57 -26 61 -26 94 15 32 41 57 44 100 13z
m1040 -102 c4 -10 -18 -14 -106 -19 -62 -4 -139 -13 -172 -21 -43 -11 -62 -12
-72 -4 -10 8 -34 6 -93 -7 -91 -21 -211 -16 -295 11 -27 8 -84 17 -125 19 -42
2 -76 8 -78 14 -2 7 88 12 305 14 169 1 381 3 469 5 129 2 163 -1 167 -12z"/>
<path d="M6445 3192 c-3 -8 -5 -31 -5 -52 l0 -38 38 9 c21 4 92 15 157 24 87
11 123 20 132 32 7 9 10 19 7 22 -3 3 -77 8 -165 11 -127 4 -160 2 -164 -8z"/>
<path d="M5143 2013 c21 -20 37 -40 37 -45 0 -4 646 -8 1435 -8 l1434 0 -48
45 -48 45 -1423 0 -1423 0 36 -37z"/>
<path d="M8222 2008 l36 -43 333 -2 334 -2 -75 24 c-41 12 -99 32 -128 44 -49
19 -72 21 -294 21 l-241 0 35 -42z"/>
<path d="M4563 1155 c35 -31 89 -33 135 -5 17 11 32 22 32 25 0 3 -44 5 -97 5
l-98 -1 28 -24z"/>
<path d="M5954 1164 c3 -9 6 -29 6 -45 l0 -29 125 0 125 0 0 45 0 45 -131 0
c-115 0 -130 -2 -125 -16z"/>
<path d="M7570 1154 c-6 -14 -15 -34 -20 -45 -10 -18 -6 -19 109 -19 l121 0
20 40 c11 21 20 42 20 45 0 3 -54 5 -120 5 -120 0 -121 0 -130 -26z"/>
<path d="M8066 1164 c-3 -9 -6 -24 -6 -35 0 -17 -5 -18 -39 -13 -26 4 -48 1
-67 -10 -27 -14 -19 -15 138 -16 l168 0 6 28 c3 15 8 35 11 45 4 15 -5 17
-100 17 -86 0 -106 -3 -111 -16z"/>
<path d="M7953 1013 c-62 -4 -63 -4 -63 -34 0 -34 21 -46 103 -55 47 -5 60 -2
142 40 l90 46 -55 0 c-30 0 -77 2 -105 4 -27 2 -78 1 -112 -1z"/>
<path d="M5780 978 c-11 -18 -20 -43 -20 -55 0 -23 1 -23 145 -23 l145 0 60
46 c33 25 62 49 65 55 9 14 -248 12 -263 -3 -9 -9 -12 -9 -12 0 0 8 -18 12
-50 12 -46 0 -52 -3 -70 -32z"/>
<path d="M7468 982 c-16 -27 -20 -28 -80 -24 -58 4 -65 2 -93 -25 l-30 -28
174 -3 c157 -2 176 -1 195 16 12 10 40 31 64 46 23 16 42 33 42 37 0 5 -58 9
-128 9 l-128 0 -16 -28z"/>
<path d="M8930 590 l0 -290 178 0 177 1 -50 44 c-49 43 -52 45 -117 45 l-68 0
0 80 0 80 28 0 c18 0 44 15 77 45 l50 44 -77 1 -78 0 0 75 0 75 63 0 c60 0 65
2 112 45 l50 44 -172 1 -173 0 0 -290z"/>
<path d="M9430 750 l0 -130 35 0 c20 0 47 7 60 16 24 16 25 20 25 130 l0 114
-60 0 -60 0 0 -130z"/>
<path d="M9640 760 l0 -120 -44 0 c-41 0 -51 -5 -105 -56 l-61 -56 0 -114 0
-114 60 0 60 0 0 125 0 125 44 0 c41 0 51 5 105 56 l61 56 0 109 0 109 -60 0
-60 0 0 -120z"/>
<path d="M9920 835 l0 -45 40 0 40 0 0 -200 0 -200 -40 0 -40 0 0 -45 0 -45
140 0 140 0 0 45 0 45 -40 0 -40 0 0 200 0 200 40 0 40 0 0 45 0 45 -140 0
-140 0 0 -45z"/>
<path d="M10360 835 l0 -45 60 0 60 0 0 -245 0 -245 60 0 60 0 0 245 0 245 65
0 65 0 0 45 0 45 -185 0 -185 0 0 -45z"/>
<path d="M5810 859 c59 -10 160 -10 185 1 12 5 -27 8 -105 8 -95 0 -114 -2
-80 -9z"/>
<path d="M7262 858 c8 -24 68 -56 118 -63 97 -13 219 24 220 68 0 4 -77 7
-171 7 -132 0 -170 -3 -167 -12z"/>
<path d="M7110 629 c-1224 -11 -4449 -38 -5510 -45 -492 -4 -897 -8 -899 -10
-2 -2 -5 -108 -6 -236 -1 -128 -6 -257 -10 -285 l-8 -53 3970 0 c4456 0 4026
-8 4109 76 59 58 66 91 62 270 -3 145 -4 152 -31 192 -15 23 -46 54 -69 69
l-42 28 -350 1 c-193 1 -740 -3 -1216 -7z m-5714 -229 c8 0 14 -7 14 -15 0 -8
-7 -15 -15 -15 -11 0 -15 -12 -15 -50 0 -37 4 -50 15 -50 9 0 12 -6 8 -16 -3
-8 -15 -14 -27 -12 -18 3 -21 11 -24 66 -2 34 -7 62 -12 62 -6 0 -10 7 -10 15
0 8 5 15 10 15 6 0 10 11 10 24 0 35 24 39 28 4 2 -16 9 -28 18 -28z m340 0
c8 0 14 -7 14 -15 0 -8 -7 -15 -15 -15 -11 0 -15 -12 -15 -50 0 -37 4 -50 15
-50 9 0 12 -6 8 -16 -3 -8 -15 -14 -27 -12 -18 3 -21 11 -24 66 -2 34 -7 62
-12 62 -6 0 -10 7 -10 15 0 8 5 15 10 15 6 0 10 11 10 24 0 35 24 39 28 4 2
-16 9 -28 18 -28z m1110 0 c8 0 14 -7 14 -15 0 -8 -7 -15 -15 -15 -11 0 -15
-12 -15 -50 0 -37 4 -50 15 -50 9 0 12 -6 8 -16 -3 -8 -15 -14 -27 -12 -18 3
-21 11 -24 66 -2 34 -7 62 -12 62 -6 0 -10 7 -10 15 0 8 5 15 10 15 6 0 10 11
10 24 0 35 24 39 28 4 2 -16 9 -28 18 -28z m1328 -3 c48 9 76 -85 40 -135 -11
-16 -25 -22 -55 -22 l-39 0 0 98 c0 65 4 102 13 111 10 10 13 5 15 -22 3 -30
6 -33 26 -30z m826 48 c0 -8 -7 -15 -15 -15 -8 0 -15 7 -15 15 0 8 7 15 15 15
8 0 15 -7 15 -15z m106 -45 c8 0 14 -7 14 -15 0 -8 -7 -15 -15 -15 -11 0 -15
-12 -15 -50 0 -37 4 -50 15 -50 9 0 12 -6 8 -16 -3 -8 -15 -14 -27 -12 -18 3
-21 11 -24 66 -2 34 -7 62 -12 62 -6 0 -10 7 -10 15 0 8 5 15 10 15 6 0 10 11
10 24 0 35 24 39 28 4 2 -16 9 -28 18 -28z m934 45 c0 -8 -7 -15 -15 -15 -8 0
-15 7 -15 15 0 8 7 15 15 15 8 0 15 -7 15 -15z m650 0 c0 -8 -7 -15 -15 -15
-8 0 -15 7 -15 15 0 8 7 15 15 15 8 0 15 -7 15 -15z m1250 -95 l0 -110 -39 0
c-48 0 -71 26 -71 80 0 48 25 83 56 77 19 -3 24 0 24 17 0 18 16 46 27 46 2 0
3 -49 3 -110z m706 78 c-3 -7 -13 -23 -22 -35 -16 -22 -15 -23 4 -23 24 0 52
-35 52 -65 0 -34 -28 -65 -60 -65 -50 0 -75 60 -50 125 17 44 62 97 73 86 5
-5 7 -16 3 -23z m-7806 -18 c0 -29 -4 -40 -15 -40 -11 0 -15 11 -15 40 0 29 4
40 15 40 11 0 15 -11 15 -40z m60 0 c0 -29 -4 -40 -15 -40 -11 0 -15 11 -15
40 0 29 4 40 15 40 11 0 15 -11 15 -40z m225 20 c24 -26 12 -37 -21 -19 -23
12 -27 11 -40 -6 -19 -26 -18 -109 1 -125 13 -11 20 -11 40 0 32 17 43 6 20
-20 -46 -50 -105 -2 -105 85 0 87 59 135 105 85z m474 -17 c25 -95 41 -161 41
-167 0 -3 -6 -6 -14 -6 -8 0 -17 14 -21 30 -5 23 -12 30 -30 30 -18 0 -25 -7
-30 -30 -4 -17 -13 -30 -21 -30 -18 0 -18 9 0 73 8 29 20 71 26 95 14 53 36
55 49 5z m361 22 c0 -8 -9 -15 -20 -15 -19 0 -20 -7 -20 -90 0 -73 -3 -90 -15
-90 -12 0 -15 17 -15 90 0 83 -1 90 -20 90 -11 0 -20 7 -20 15 0 12 13 15 55
15 42 0 55 -3 55 -15z m70 -14 c0 -24 3 -28 23 -24 40 8 57 -20 57 -93 0 -49
-3 -64 -15 -64 -10 0 -15 16 -17 63 -3 54 -5 62 -23 62 -18 0 -20 -8 -23 -62
-2 -47 -7 -63 -17 -63 -12 0 -15 19 -15 98 0 54 3 102 7 105 14 14 23 6 23
-22z m452 12 c37 -33 10 -93 -44 -93 -27 0 -28 -2 -28 -50 0 -38 -4 -50 -15
-50 -12 0 -15 18 -15 105 l0 105 42 0 c24 0 49 -7 60 -17z m598 -23 c0 -29 -4
-40 -15 -40 -11 0 -15 11 -15 40 0 29 4 40 15 40 11 0 15 -11 15 -40z m60 0
c0 -29 -4 -40 -15 -40 -11 0 -15 11 -15 40 0 29 4 40 15 40 11 0 15 -11 15
-40z m349 -13 c8 -26 18 -47 22 -47 4 0 15 23 24 50 10 29 23 50 31 50 11 0
14 -21 14 -105 0 -87 -3 -105 -15 -105 -11 0 -15 13 -16 53 0 53 0 54 -29 -18
l-12 -30 -18 50 -18 50 -1 -52 c-1 -40 -5 -53 -16 -53 -12 0 -15 18 -15 106 0
94 2 105 17 102 10 -2 23 -22 32 -51z m1059 14 l18 -38 16 38 c9 22 23 39 32
39 21 0 20 -2 -9 -60 -17 -33 -25 -66 -25 -100 0 -38 -4 -50 -15 -50 -11 0
-15 12 -15 50 0 34 -8 67 -25 100 -29 58 -30 60 -10 60 9 0 24 -17 33 -39z
m942 24 c0 -11 -11 -15 -40 -15 -36 0 -40 -2 -40 -25 0 -20 5 -25 25 -25 16 0
25 -6 25 -15 0 -9 -9 -15 -25 -15 -23 0 -25 -3 -25 -50 0 -38 -4 -50 -15 -50
-12 0 -15 18 -15 105 l0 105 55 0 c42 0 55 -3 55 -15z m1050 -14 c0 -24 3 -28
23 -24 40 8 57 -20 57 -93 0 -49 -3 -64 -15 -64 -10 0 -15 16 -17 63 -3 54 -5
62 -23 62 -18 0 -20 -8 -23 -62 -2 -47 -7 -63 -17 -63 -12 0 -15 19 -15 98 0
54 3 102 7 105 14 14 23 6 23 -22z m500 -33 l29 -63 0 63 c1 48 4 62 16 62 12
0 15 -18 15 -105 0 -127 -13 -136 -58 -42 l-30 62 -1 -62 c-1 -49 -4 -63 -16
-63 -12 0 -15 18 -15 105 0 129 15 139 60 43z m582 45 c28 -25 22 -52 -22 -99
-22 -24 -40 -48 -40 -54 0 -5 18 -10 40 -10 29 0 40 -4 40 -15 0 -12 -13 -15
-60 -15 -33 0 -60 4 -60 9 0 25 25 70 57 103 23 23 33 42 30 52 -8 20 -46 21
-53 1 -8 -19 -34 -20 -34 -1 0 19 38 46 64 46 11 0 28 -7 38 -17z m620 0 c28
-25 22 -52 -22 -99 -22 -24 -40 -48 -40 -54 0 -5 18 -10 40 -10 29 0 40 -4 40
-15 0 -12 -13 -15 -60 -15 -33 0 -60 4 -60 9 0 25 25 70 57 103 23 23 33 42
30 52 -8 20 -46 21 -53 1 -8 -19 -34 -20 -34 -1 0 19 38 46 64 46 11 0 28 -7
38 -17z m155 9 c31 -20 43 -118 21 -167 -12 -27 -45 -41 -76 -31 -52 17 -58
165 -8 198 14 10 48 10 63 0z m123 -97 c0 -87 -3 -105 -15 -105 -12 0 -15 16
-15 85 0 50 -4 85 -10 85 -14 0 -12 27 3 33 35 15 37 8 37 -98z m-7246 39 c11
-11 16 -35 16 -80 l0 -64 -38 0 c-45 0 -62 14 -62 51 0 32 23 59 51 59 12 0
17 4 13 11 -3 6 -15 9 -25 6 -23 -6 -37 12 -18 24 21 13 46 11 63 -7z m959 4
c9 -7 20 -28 23 -45 l7 -33 -42 0 c-35 0 -42 -3 -39 -17 2 -11 13 -18 28 -19
41 -2 43 -3 30 -19 -34 -41 -90 0 -90 65 0 64 42 98 83 68z m391 -4 c11 -11
16 -35 16 -80 l0 -64 -38 0 c-45 0 -62 14 -62 51 0 32 23 59 51 59 12 0 17 4
13 11 -3 6 -15 9 -25 6 -23 -6 -37 12 -18 24 21 13 46 11 63 -7z m136 -3 c0
-12 -7 -18 -17 -17 -15 1 -18 -9 -21 -61 -2 -47 -7 -63 -17 -63 -12 0 -15 17
-15 80 l0 80 35 0 c28 0 35 -4 35 -19z m160 -26 c7 -24 16 -43 19 -40 4 2 13
22 21 44 7 23 19 41 27 41 18 0 18 -2 -22 -128 -24 -76 -40 -112 -50 -112 -18
0 -18 2 -4 50 10 32 8 48 -10 101 -25 74 -26 89 -7 89 7 0 19 -20 26 -45z
m794 29 c11 -11 16 -35 16 -80 l0 -64 -38 0 c-45 0 -62 14 -62 51 0 32 23 59
51 59 12 0 17 4 13 11 -3 6 -15 9 -25 6 -23 -6 -37 12 -18 24 21 13 46 11 63
-7z m146 -1 c0 -10 -12 -36 -25 -58 -31 -50 -31 -55 0 -55 16 0 25 -6 25 -15
0 -11 -12 -15 -45 -15 -54 0 -55 6 -16 78 l29 52 -24 0 c-15 0 -24 6 -24 15 0
11 11 15 40 15 32 0 40 -4 40 -17z m123 5 c9 -7 20 -28 23 -45 l7 -33 -42 0
c-35 0 -42 -3 -39 -17 2 -11 13 -18 28 -19 41 -2 43 -3 30 -19 -34 -41 -90 0
-90 65 0 64 42 98 83 68z m327 -33 c7 -24 16 -43 19 -40 4 2 13 22 21 44 7 23
19 41 27 41 18 0 18 -2 -22 -128 -24 -76 -40 -112 -50 -112 -18 0 -18 2 -4 50
10 32 8 48 -10 101 -25 74 -26 89 -7 89 7 0 19 -20 26 -45z m444 29 c11 -11
16 -35 16 -80 l0 -64 -38 0 c-45 0 -62 14 -62 51 0 32 23 59 51 59 12 0 17 4
13 11 -3 6 -15 9 -25 6 -23 -6 -37 12 -18 24 21 13 46 11 63 -7z m161 0 c21
-21 21 -144 0 -144 -10 0 -15 16 -17 63 -3 54 -5 62 -23 62 -18 0 -20 -8 -23
-62 -2 -47 -7 -63 -17 -63 -12 0 -15 17 -15 79 l0 79 40 0 c23 1 46 -6 55 -14z
m85 -64 c0 -64 -3 -80 -15 -80 -12 0 -15 16 -15 80 0 64 3 80 15 80 12 0 15
-16 15 -80z m244 58 c35 -49 9 -138 -39 -138 -31 0 -55 35 -55 80 0 45 24 80
55 80 13 0 31 -10 39 -22z m366 3 c0 -12 -7 -18 -17 -17 -15 1 -18 -9 -21 -61
-2 -47 -7 -63 -17 -63 -12 0 -15 17 -15 80 l0 80 35 0 c28 0 35 -4 35 -19z
m113 7 c9 -7 20 -28 23 -45 l7 -33 -42 0 c-35 0 -42 -3 -39 -17 2 -11 13 -18
28 -19 41 -2 43 -3 30 -19 -34 -41 -90 0 -90 65 0 64 42 98 83 68z m223 -5
c20 -20 20 -143 -1 -143 -10 0 -15 16 -17 63 -2 47 -7 62 -18 62 -11 0 -16
-15 -18 -62 -2 -46 -7 -63 -17 -63 -10 0 -15 17 -17 63 -2 47 -7 62 -18 62
-11 0 -16 -15 -18 -62 -2 -47 -7 -63 -17 -63 -12 0 -15 17 -15 79 l0 78 71 0
c48 0 75 -4 85 -14z m94 -63 c0 -64 -3 -80 -15 -80 -12 0 -15 16 -15 80 0 64
3 80 15 80 12 0 15 -16 15 -80z m145 64 c21 -21 21 -144 0 -144 -10 0 -15 16
-17 63 -3 54 -5 62 -23 62 -18 0 -20 -8 -23 -62 -2 -47 -7 -63 -17 -63 -12 0
-15 17 -15 79 l0 79 40 0 c23 1 46 -6 55 -14z m149 -6 c35 -49 9 -138 -39
-138 -31 0 -55 35 -55 80 0 45 24 80 55 80 13 0 31 -10 39 -22z m117 11 c26
-14 14 -31 -17 -23 -33 9 -30 -10 6 -36 46 -33 36 -90 -16 -90 -25 0 -49 24
-39 40 5 8 11 7 21 -1 12 -10 17 -9 27 0 9 10 5 18 -21 39 -34 28 -40 50 -20
70 15 15 33 15 59 1z m239 -69 c0 -64 -3 -80 -15 -80 -12 0 -15 16 -15 80 0
64 3 80 15 80 12 0 15 -16 15 -80z m554 58 c35 -49 9 -138 -39 -138 -31 0 -55
35 -55 80 0 45 24 80 55 80 13 0 31 -10 39 -22z m88 -30 l14 -53 18 53 c10 30
24 52 32 52 8 0 14 -1 14 -2 0 -2 -11 -37 -24 -78 -31 -96 -47 -100 -70 -18
-10 35 -21 71 -23 81 -3 11 0 17 9 17 10 0 20 -19 30 -52z m453 36 c21 -21 21
-144 0 -144 -10 0 -15 16 -17 63 -3 54 -5 62 -23 62 -18 0 -20 -8 -23 -62 -2
-47 -7 -63 -17 -63 -12 0 -15 17 -15 79 l0 79 40 0 c23 1 46 -6 55 -14z
m-4455 -39 c0 -10 -11 -15 -35 -15 -24 0 -35 5 -35 15 0 10 11 15 35 15 24 0
35 -5 35 -15z m3550 0 c0 -10 -11 -15 -35 -15 -24 0 -35 5 -35 15 0 10 11 15
35 15 24 0 35 -5 35 -15z m1140 -94 c0 -10 -8 -25 -17 -32 -16 -13 -17 -12 -4
4 9 11 10 17 2 17 -6 0 -11 7 -11 15 0 8 7 15 15 15 8 0 15 -8 15 -19z"/>
<path d="M4154 356 c-11 -28 1 -81 18 -84 21 -4 33 35 24 73 -7 27 -33 34 -42
11z"/>
<path d="M7864 346 c-9 -39 3 -78 24 -74 13 3 17 14 17 48 0 34 -4 45 -17 48
-12 2 -19 -5 -24 -22z"/>
<path d="M8594 326 c-11 -29 0 -51 26 -51 21 0 25 5 25 30 0 24 -5 31 -23 33
-13 2 -24 -3 -28 -12z"/>
<path d="M1571 373 c-1 -6 -4 -18 -7 -27 -4 -11 -1 -16 10 -16 18 0 19 6 6 35
-5 11 -9 15 -9 8z"/>
<path d="M2410 395 c0 -23 4 -26 28 -23 19 2 27 9 27 23 0 14 -8 21 -27 23
-24 3 -28 0 -28 -23z"/>
<path d="M8340 401 c-23 -43 -6 -131 25 -131 20 0 35 32 35 75 0 43 -15 75
-35 75 -8 0 -19 -9 -25 -19z"/>
<path d="M1223 304 c-7 -18 11 -39 26 -30 17 11 13 46 -4 46 -9 0 -18 -7 -22
-16z"/>
<path d="M2187 364 c-14 -14 -6 -24 19 -24 16 0 24 5 22 13 -5 14 -31 21 -41
11z"/>
<path d="M2573 304 c-7 -18 11 -39 26 -30 17 11 13 46 -4 46 -9 0 -18 -7 -22
-16z"/>
<path d="M3663 304 c-7 -18 11 -39 26 -30 17 11 13 46 -4 46 -9 0 -18 -7 -22
-16z"/>
<path d="M3937 364 c-14 -14 -6 -24 19 -24 16 0 24 5 22 13 -5 14 -31 21 -41
11z"/>
<path d="M4703 304 c-7 -18 11 -39 26 -30 17 11 13 46 -4 46 -9 0 -18 -7 -22
-16z"/>
<path d="M5184 356 c-11 -28 1 -81 18 -84 21 -4 33 35 24 73 -7 27 -33 34 -42
11z"/>
<path d="M5677 364 c-14 -14 -6 -24 19 -24 16 0 24 5 22 13 -5 14 -31 21 -41
11z"/>
<path d="M6274 356 c-11 -28 1 -81 18 -84 21 -4 33 35 24 73 -7 27 -33 34 -42
11z"/>
<path d="M7184 356 c-11 -28 1 -81 18 -84 21 -4 33 35 24 73 -7 27 -33 34 -42
11z"/>
<path d="M9657 542 c-14 -15 -17 -40 -17 -130 l0 -112 60 0 60 0 0 130 0 130
-43 0 c-30 0 -49 -6 -60 -18z"/>
</g>
</svg>
